<?xml version="1.0" encoding="UTF-8"?>
<svg version="1.1" xmlns="http://www.w3.org/2000/svg" width="1140" height="294">
<path d="M0 0 C1.07869606 -0.00855011 1.07869606 -0.00855011 2.17918396 -0.01727295 C3.69960069 -0.02669118 5.22003753 -0.03324426 6.74047852 -0.03710938 C9.02723587 -0.0467429 11.31306528 -0.07776493 13.59960938 -0.109375 C32.04122012 -0.24310349 44.7969633 4.64933168 58.49609375 17.203125 C61.49609375 20.64733101 61.49609375 20.64733101 61.49609375 24.203125 C62.15609375 24.203125 62.81609375 24.203125 63.49609375 24.203125 C69.89663179 35.90487203 73.02269794 48.70238273 69.8203125 62.01171875 C68.99609375 64.203125 68.99609375 64.203125 67.49609375 67.203125 C66.83609375 67.203125 66.17609375 67.203125 65.49609375 67.203125 C65.26921875 68.13125 65.04234375 69.059375 64.80859375 70.015625 C63.27809467 73.73255135 62.09815161 74.58219896 58.49609375 76.203125 C57.83609375 76.203125 57.17609375 76.203125 56.49609375 76.203125 C56.49609375 76.863125 56.49609375 77.523125 56.49609375 78.203125 C53.03109375 79.193125 53.03109375 79.193125 49.49609375 80.203125 C49.49609375 80.863125 49.49609375 81.523125 49.49609375 82.203125 C38.78882812 84.44464603 30.16175349 84.69697446 19.49609375 82.203125 C19.49609375 81.543125 19.49609375 80.883125 19.49609375 80.203125 C18.42359375 79.955625 17.35109375 79.708125 16.24609375 79.453125 C12.35083763 78.15470629 11.10108843 77.24228546 8.49609375 74.203125 C7.58859375 73.3575 6.68109375 72.511875 5.74609375 71.640625 C3.49609375 69.203125 3.49609375 69.203125 3.49609375 66.203125 C2.83609375 66.203125 2.17609375 66.203125 1.49609375 66.203125 C-3.18560334 56.40422412 -4.64708939 47.91904069 -2.50390625 37.203125 C-1.84390625 37.203125 -1.18390625 37.203125 -0.50390625 37.203125 C-0.35953125 36.089375 -0.21515625 34.975625 -0.06640625 33.828125 C0.49609375 30.203125 0.49609375 30.203125 1.49609375 28.203125 C2.15609375 28.203125 2.81609375 28.203125 3.49609375 28.203125 C3.82609375 27.213125 4.15609375 26.223125 4.49609375 25.203125 C1.52609375 25.533125 -1.44390625 25.863125 -4.50390625 26.203125 C-4.50390625 26.863125 -4.50390625 27.523125 -4.50390625 28.203125 C-5.179375 28.45707031 -5.85484375 28.71101563 -6.55078125 28.97265625 C-7.4428125 29.31683594 -8.33484375 29.66101563 -9.25390625 30.015625 C-10.57648438 30.52029297 -10.57648438 30.52029297 -11.92578125 31.03515625 C-14.43520951 32.17200329 -16.32136257 33.5472386 -18.50390625 35.203125 C-19.16390625 35.203125 -19.82390625 35.203125 -20.50390625 35.203125 C-20.50390625 35.863125 -20.50390625 36.523125 -20.50390625 37.203125 C-21.85792594 38.1058048 -23.21612517 39.00259104 -24.58984375 39.875 C-30.73186961 44.13681386 -35.85715218 49.39468242 -40.50390625 55.203125 C-42.17057292 56.86979167 -43.83723958 58.53645833 -45.50390625 60.203125 C-46.40825311 61.30032969 -47.30412621 62.40457346 -48.19140625 63.515625 C-48.95453125 64.4025 -49.71765625 65.289375 -50.50390625 66.203125 C-51.16390625 66.203125 -51.82390625 66.203125 -52.50390625 66.203125 C-53.16390625 67.853125 -53.82390625 69.503125 -54.50390625 71.203125 C-55.16390625 71.203125 -55.82390625 71.203125 -56.50390625 71.203125 C-56.77203125 71.96625 -57.04015625 72.729375 -57.31640625 73.515625 C-58.47900355 76.14676626 -59.47682088 77.26050152 -61.50390625 79.203125 C-61.85453125 79.904375 -62.20515625 80.605625 -62.56640625 81.328125 C-63.50390625 83.203125 -63.50390625 83.203125 -65.50390625 84.203125 C-65.97828125 85.316875 -66.45265625 86.430625 -66.94140625 87.578125 C-68.32239375 90.78201601 -69.06350123 91.97492911 -71.50390625 94.203125 C-72.67965336 96.30302152 -72.67965336 96.30302152 -73.50390625 98.203125 C-74.16390625 98.203125 -74.82390625 98.203125 -75.50390625 98.203125 C-75.72046875 99.1003125 -75.72046875 99.1003125 -75.94140625 100.015625 C-76.39115015 101.76462904 -76.93282966 103.48989523 -77.50390625 105.203125 C-78.16390625 105.203125 -78.82390625 105.203125 -79.50390625 105.203125 C-80.49390625 108.503125 -81.48390625 111.803125 -82.50390625 115.203125 C-83.16390625 115.203125 -83.82390625 115.203125 -84.50390625 115.203125 C-84.63667969 115.81800781 -84.76945312 116.43289062 -84.90625 117.06640625 C-85.08285156 117.87464844 -85.25945312 118.68289062 -85.44140625 119.515625 C-85.61542969 120.31613281 -85.78945312 121.11664063 -85.96875 121.94140625 C-86.50390625 124.203125 -86.50390625 124.203125 -87.50390625 127.203125 C-88.16390625 127.203125 -88.82390625 127.203125 -89.50390625 127.203125 C-90.16390625 131.163125 -90.82390625 135.123125 -91.50390625 139.203125 C-92.16390625 139.203125 -92.82390625 139.203125 -93.50390625 139.203125 C-94.41502348 146.91508156 -94.61323583 154.56995988 -94.62890625 162.328125 C-94.63341797 163.2454541 -94.63792969 164.1627832 -94.64257812 165.10791016 C-94.62950417 171.19492506 -94.22159344 177.15918524 -93.50390625 183.203125 C-92.84390625 183.203125 -92.18390625 183.203125 -91.50390625 183.203125 C-91.09140625 184.42 -90.67890625 185.636875 -90.25390625 186.890625 C-87.73909659 193.48475725 -83.81209321 196.92976212 -78.11328125 200.87109375 C-77.5821875 201.31066406 -77.05109375 201.75023437 -76.50390625 202.203125 C-76.50390625 202.863125 -76.50390625 203.523125 -76.50390625 204.203125 C-75.49328125 204.47125 -74.48265625 204.739375 -73.44140625 205.015625 C-70.85383987 205.7021222 -68.6728703 206.58896312 -66.22265625 207.7265625 C-55.36269057 212.43605751 -41.81906073 210.02378151 -30.50390625 208.203125 C-30.50390625 207.543125 -30.50390625 206.883125 -30.50390625 206.203125 C-27.86390625 205.543125 -25.22390625 204.883125 -22.50390625 204.203125 C-22.50390625 203.543125 -22.50390625 202.883125 -22.50390625 202.203125 C-19.53390625 201.213125 -16.56390625 200.223125 -13.50390625 199.203125 C-13.50390625 198.543125 -13.50390625 197.883125 -13.50390625 197.203125 C-11.52390625 196.543125 -9.54390625 195.883125 -7.50390625 195.203125 C-7.50390625 194.543125 -7.50390625 193.883125 -7.50390625 193.203125 C-6.0053269 192.0806713 -4.45266725 191.02998128 -2.87890625 190.015625 C1.13752508 187.29079641 4.2038278 184.61685583 7.1953125 180.81640625 C8.49609375 179.203125 8.49609375 179.203125 11.12109375 176.765625 C16.49186983 170.97084028 18.46933126 163.69600452 20.49609375 156.203125 C21.15609375 156.203125 21.81609375 156.203125 22.49609375 156.203125 C22.64046875 155.275 22.78484375 154.346875 22.93359375 153.390625 C23.49609375 150.203125 23.49609375 150.203125 24.49609375 147.203125 C25.15609375 147.203125 25.81609375 147.203125 26.49609375 147.203125 C27.48609375 144.233125 27.48609375 144.233125 28.49609375 141.203125 C29.15609375 141.203125 29.81609375 141.203125 30.49609375 141.203125 C30.80546875 140.419375 31.11484375 139.635625 31.43359375 138.828125 C32.49609375 136.203125 32.49609375 136.203125 33.49609375 134.203125 C34.15609375 134.203125 34.81609375 134.203125 35.49609375 134.203125 C35.68171875 133.501875 35.86734375 132.800625 36.05859375 132.078125 C37.76131663 128.67267925 39.75608966 127.0495137 42.68359375 124.6953125 C44.35123428 123.3223843 45.82341705 121.89286473 47.30859375 120.328125 C49.49609375 118.203125 49.49609375 118.203125 51.49609375 118.203125 C51.49609375 117.543125 51.49609375 116.883125 51.49609375 116.203125 C54.96109375 115.213125 54.96109375 115.213125 58.49609375 114.203125 C58.49609375 113.543125 58.49609375 112.883125 58.49609375 112.203125 C66.05626244 109.57350111 73.16967795 108.87879337 81.12109375 108.828125 C81.99080811 108.81458984 82.86052246 108.80105469 83.7565918 108.78710938 C90.09259244 108.83009364 95.53267439 110.09923448 101.49609375 112.203125 C101.49609375 112.863125 101.49609375 113.523125 101.49609375 114.203125 C102.27984375 114.47125 103.06359375 114.739375 103.87109375 115.015625 C106.49609375 116.203125 106.49609375 116.203125 108.49609375 119.203125 C108.82609375 116.233125 109.15609375 113.263125 109.49609375 110.203125 C122.03609375 110.203125 134.57609375 110.203125 147.49609375 110.203125 C146.49609375 118.203125 146.49609375 118.203125 145.49609375 121.203125 C144.83609375 121.203125 144.17609375 121.203125 143.49609375 121.203125 C143.39425781 122.16347656 143.29242188 123.12382813 143.1875 124.11328125 C142.51584933 128.81483591 140.98700674 133.16780476 139.43359375 137.640625 C139.15193359 138.46755859 138.87027344 139.29449219 138.58007812 140.14648438 C137.89091583 142.16724838 137.19427065 144.18545782 136.49609375 146.203125 C135.83609375 146.203125 135.17609375 146.203125 134.49609375 146.203125 C134.37234375 147.399375 134.24859375 148.595625 134.12109375 149.828125 C133.67284321 153.47909313 132.79162538 156.74837399 131.49609375 160.203125 C130.83609375 160.203125 130.17609375 160.203125 129.49609375 160.203125 C129.41359375 161.316875 129.33109375 162.430625 129.24609375 163.578125 C128.59548905 168.83872875 126.56666333 173.36404104 124.49609375 178.203125 C121.51124869 185.67231074 118.98616337 193.28888731 117.49609375 201.203125 C120.90733393 199.79157734 122.34171605 198.14091277 124.49609375 195.203125 C125.15609375 195.203125 125.81609375 195.203125 126.49609375 195.203125 C126.80546875 194.419375 127.11484375 193.635625 127.43359375 192.828125 C128.49609375 190.203125 128.49609375 190.203125 129.49609375 188.203125 C130.15609375 188.203125 130.81609375 188.203125 131.49609375 188.203125 C131.64046875 187.275 131.78484375 186.346875 131.93359375 185.390625 C132.49609375 182.203125 132.49609375 182.203125 133.49609375 179.203125 C134.15609375 179.203125 134.81609375 179.203125 135.49609375 179.203125 C135.60308594 178.35492188 135.71007812 177.50671875 135.8203125 176.6328125 C136.55565584 172.9008388 137.77813807 169.80749006 139.30859375 166.328125 C139.57631592 165.71533691 139.84403809 165.10254883 140.11987305 164.47119141 C141.59426781 161.12604494 143.14460455 157.83269212 144.80859375 154.578125 C146.12181801 151.95167648 146.87914373 150.00077957 147.49609375 147.203125 C148.15609375 147.203125 148.81609375 147.203125 149.49609375 147.203125 C149.76421875 145.924375 150.03234375 144.645625 150.30859375 143.328125 C151.06799474 139.70636645 151.19687178 139.40260632 154.49609375 137.203125 C155.71490585 133.64640321 155.71490585 133.64640321 156.49609375 130.203125 C157.15609375 130.203125 157.81609375 130.203125 158.49609375 130.203125 C158.68171875 129.378125 158.86734375 128.553125 159.05859375 127.703125 C161.35228259 122.1184913 165.00813438 117.47357234 170.43359375 114.703125 C171.11421875 114.538125 171.79484375 114.373125 172.49609375 114.203125 C172.49609375 113.543125 172.49609375 112.883125 172.49609375 112.203125 C180.35250776 108.71138544 189.54814321 109.31296117 197.49609375 112.203125 C197.49609375 112.863125 197.49609375 113.523125 197.49609375 114.203125 C198.23859375 114.43 198.98109375 114.656875 199.74609375 114.890625 C203.97576179 116.9093302 205.87013236 119.79471187 207.74609375 124.015625 C207.99359375 124.7375 208.24109375 125.459375 208.49609375 126.203125 C208.955 125.79320313 209.41390625 125.38328125 209.88671875 124.9609375 C210.5003125 124.42210938 211.11390625 123.88328125 211.74609375 123.328125 C212.349375 122.79445313 212.95265625 122.26078125 213.57421875 121.7109375 C216.60653836 119.33192252 218.60260771 118.203125 222.49609375 118.203125 C222.49609375 117.543125 222.49609375 116.883125 222.49609375 116.203125 C225.40209636 114.94647522 227.29213959 114.203125 230.49609375 114.203125 C230.49609375 113.543125 230.49609375 112.883125 230.49609375 112.203125 C250.87652853 107.39334239 250.87652853 107.39334239 260.49609375 112.203125 C260.49609375 112.863125 260.49609375 113.523125 260.49609375 114.203125 C261.30046875 114.47125 262.10484375 114.739375 262.93359375 115.015625 C263.77921875 115.4075 264.62484375 115.799375 265.49609375 116.203125 C265.82609375 117.193125 266.15609375 118.183125 266.49609375 119.203125 C267.15609375 119.533125 267.81609375 119.863125 268.49609375 120.203125 C270.06820043 124.65742727 270.72601302 128.48977997 270.49609375 133.203125 C271.15609375 133.203125 271.81609375 133.203125 272.49609375 133.203125 C272.52296654 135.01554552 272.5424309 136.82807733 272.55859375 138.640625 C272.57019531 139.64996094 272.58179688 140.65929687 272.59375 141.69921875 C272.49609375 144.203125 272.49609375 144.203125 271.49609375 145.203125 C271.26245494 147.05204446 271.0830574 148.90800531 270.93359375 150.765625 C270.84980469 151.77753906 270.76601563 152.78945312 270.6796875 153.83203125 C270.61910156 154.61449219 270.55851562 155.39695313 270.49609375 156.203125 C271.15609375 156.203125 271.81609375 156.203125 272.49609375 156.203125 C272.86734375 154.8728125 272.86734375 154.8728125 273.24609375 153.515625 C274.90571664 149.11762435 277.33991607 146.32626903 280.68359375 143.078125 C282.72495781 141.2365191 282.72495781 141.2365191 283.49609375 138.203125 C284.9140625 136.84375 284.9140625 136.84375 286.68359375 135.453125 C289.90243464 132.81473083 292.48018264 129.99293633 295.0390625 126.71875 C296.70381977 124.98704539 298.33320334 124.21158924 300.49609375 123.203125 C301.17671875 122.460625 301.17671875 122.460625 301.87109375 121.703125 C304.13547035 119.61293121 306.57261059 119.0476868 309.49609375 118.203125 C309.49609375 117.543125 309.49609375 116.883125 309.49609375 116.203125 C313.37293462 115.01025089 316.41231298 114.203125 320.49609375 114.203125 C320.49609375 113.543125 320.49609375 112.883125 320.49609375 112.203125 C331.49627531 110.33894857 342.5588381 109.08959967 353.49609375 112.203125 C353.49609375 112.863125 353.49609375 113.523125 353.49609375 114.203125 C355.47609375 114.533125 357.45609375 114.863125 359.49609375 115.203125 C361.28609757 110.54911507 362.94598664 105.88037559 364.49609375 101.140625 C365.96003982 96.7155153 367.5716489 92.45294072 369.49609375 88.203125 C372.43214512 81.71539859 375.22160657 75.25726296 377.359375 68.45703125 C379.08148905 63.00721354 381.01202231 58.01504984 383.68359375 52.953125 C386.16469382 48.20341202 387.29074466 44.54220143 387.49609375 39.203125 C383.53609375 39.203125 379.57609375 39.203125 375.49609375 39.203125 C375.49609375 37.553125 375.49609375 35.903125 375.49609375 34.203125 C376.15609375 34.203125 376.81609375 34.203125 377.49609375 34.203125 C377.59921875 32.98625 377.70234375 31.769375 377.80859375 30.515625 C378.12918132 26.7326917 379.50493654 24.40427529 381.49609375 21.203125 C387.28033371 21.32131031 393.06439958 21.4455544 398.84838867 21.57543945 C400.81645154 21.61877741 402.78455173 21.66045332 404.75268555 21.70043945 C407.58002985 21.75816945 410.40718646 21.82185616 413.234375 21.88671875 C414.55638664 21.91178749 414.55638664 21.91178749 415.90510559 21.93736267 C417.13604195 21.9672805 417.13604195 21.9672805 418.3918457 21.99780273 C419.11354446 22.01334702 419.83524323 22.0288913 420.57881165 22.04490662 C422.49609375 22.203125 422.49609375 22.203125 425.49609375 23.203125 C427.19476563 23.35090436 428.89786864 23.45059566 430.6015625 23.51953125 C431.58447266 23.56142578 432.56738281 23.60332031 433.58007812 23.64648438 C434.60423828 23.68580078 435.62839844 23.72511719 436.68359375 23.765625 C437.71935547 23.80880859 438.75511719 23.85199219 439.82226562 23.89648438 C442.38007565 24.00256866 444.9379822 24.10462646 447.49609375 24.203125 C446.79831665 28.18377723 445.68259964 30.79217581 443.49609375 34.203125 C443.24859375 34.925 443.00109375 35.646875 442.74609375 36.390625 C441.03505509 38.87163106 439.25480122 38.74131705 436.44140625 39.37109375 C433.08519574 40.80658138 431.19667416 43.61634933 428.9765625 46.42578125 C427.49609375 48.203125 427.49609375 48.203125 425.49609375 49.203125 C424.76533727 51.5171872 424.09471117 53.85141369 423.49609375 56.203125 C422.83609375 56.203125 422.17609375 56.203125 421.49609375 56.203125 C419.92707516 63.18846296 419.92707516 63.18846296 418.49609375 70.203125 C417.83609375 70.203125 417.17609375 70.203125 416.49609375 70.203125 C416.38265625 71.20859375 416.26921875 72.2140625 416.15234375 73.25 C415.58950629 77.18589858 414.38453178 80.72371588 412.99609375 84.453125 C412.55265625 85.65453125 412.10921875 86.8559375 411.65234375 88.09375 C411.27078125 89.11984375 410.88921875 90.1459375 410.49609375 91.203125 C410.16609375 92.193125 409.83609375 93.183125 409.49609375 94.203125 C408.83609375 94.203125 408.17609375 94.203125 407.49609375 94.203125 C407.38394531 95.20859375 407.27179687 96.2140625 407.15625 97.25 C406.59262037 101.19838959 405.35102394 104.7217703 403.93359375 108.453125 C402.05689103 113.20751293 402.05689103 113.20751293 401.49609375 118.203125 C401.90859375 117.72875 402.32109375 117.254375 402.74609375 116.765625 C404.67827875 115.04045982 405.9780165 114.63727625 408.49609375 114.203125 C408.49609375 113.543125 408.49609375 112.883125 408.49609375 112.203125 C416.64566185 108.67898744 425.21795068 109.70406294 433.49609375 112.203125 C433.49609375 112.863125 433.49609375 113.523125 433.49609375 114.203125 C434.81609375 114.533125 436.13609375 114.863125 437.49609375 115.203125 C443.30726002 136.99499852 438.36650048 162.04344814 436.49609375 184.203125 C435.83609375 184.203125 435.17609375 184.203125 434.49609375 184.203125 C434.82609375 185.193125 435.15609375 186.183125 435.49609375 187.203125 C436.45735278 185.78844189 437.414977 184.3712886 438.37109375 182.953125 C438.90476562 182.16421875 439.4384375 181.3753125 439.98828125 180.5625 C441.3143139 178.48756808 442.4453755 176.42697528 443.49609375 174.203125 C444.15609375 174.203125 444.81609375 174.203125 445.49609375 174.203125 C445.80546875 173.254375 446.11484375 172.305625 446.43359375 171.328125 C447.49609375 168.203125 447.49609375 168.203125 448.49609375 166.203125 C449.15609375 166.203125 449.81609375 166.203125 450.49609375 166.203125 C450.78484375 165.23375 451.07359375 164.264375 451.37109375 163.265625 C452.49609375 160.203125 452.49609375 160.203125 454.49609375 159.203125 C455.23859375 157.470625 455.23859375 157.470625 455.99609375 155.703125 C457.49609375 152.203125 457.49609375 152.203125 459.49609375 151.203125 C460.62959909 149.18642673 460.62959909 149.18642673 461.49609375 147.203125 C462.15609375 147.203125 462.81609375 147.203125 463.49609375 147.203125 C463.80546875 146.254375 464.11484375 145.305625 464.43359375 144.328125 C465.49609375 141.203125 465.49609375 141.203125 466.49609375 139.203125 C467.15609375 139.203125 467.81609375 139.203125 468.49609375 139.203125 C469.15609375 137.223125 469.81609375 135.243125 470.49609375 133.203125 C471.15609375 133.203125 471.81609375 133.203125 472.49609375 133.203125 C470.4349279 130.53124335 468.41323176 128.12632608 465.93359375 125.828125 C461.46693574 121.01787791 460.32469729 116.61696077 460.49609375 110.203125 C472.17373395 110.1306431 483.8244679 110.35108608 495.49609375 110.703125 C497.15754593 110.75151366 498.81900427 110.79969174 500.48046875 110.84765625 C504.48575174 110.96373071 508.49094197 111.08261147 512.49609375 111.203125 C512.49609375 109.883125 512.49609375 108.563125 512.49609375 107.203125 C513.15609375 107.203125 513.81609375 107.203125 514.49609375 107.203125 C515.15609375 103.903125 515.81609375 100.603125 516.49609375 97.203125 C517.15609375 97.203125 517.81609375 97.203125 518.49609375 97.203125 C518.62886719 96.59984375 518.76164063 95.9965625 518.8984375 95.375 C519.07503906 94.57578125 519.25164063 93.7765625 519.43359375 92.953125 C519.60761719 92.16421875 519.78164063 91.3753125 519.9609375 90.5625 C520.44364975 88.43433797 520.95772553 86.31779658 521.49609375 84.203125 C522.15609375 84.203125 522.81609375 84.203125 523.49609375 84.203125 C524.15609375 81.233125 524.81609375 78.263125 525.49609375 75.203125 C526.15609375 75.203125 526.81609375 75.203125 527.49609375 75.203125 C527.61984375 74.3575 527.74359375 73.511875 527.87109375 72.640625 C528.52379702 69.05075702 529.44856838 65.69487625 530.49609375 62.203125 C531.15609375 62.203125 531.81609375 62.203125 532.49609375 62.203125 C532.64046875 61.275 532.78484375 60.346875 532.93359375 59.390625 C533.49609375 56.203125 533.49609375 56.203125 534.49609375 53.203125 C535.15609375 53.203125 535.81609375 53.203125 536.49609375 53.203125 C536.85978267 51.60109033 537.21171327 49.99638297 537.55859375 48.390625 C537.75582031 47.49730469 537.95304688 46.60398438 538.15625 45.68359375 C538.69958838 43.07681721 538.69958838 43.07681721 537.49609375 40.203125 C533.20609375 40.203125 528.91609375 40.203125 524.49609375 40.203125 C524.82609375 37.893125 525.15609375 35.583125 525.49609375 33.203125 C526.15609375 33.203125 526.81609375 33.203125 527.49609375 33.203125 C527.61726562 32.57664063 527.7384375 31.95015625 527.86328125 31.3046875 C528.03085937 30.48742187 528.1984375 29.67015625 528.37109375 28.828125 C528.53351562 28.01601563 528.6959375 27.20390625 528.86328125 26.3671875 C529.49609375 24.203125 529.49609375 24.203125 531.49609375 22.203125 C537.3581754 21.8774538 537.3581754 21.8774538 540.22265625 22.69726562 C543.62035309 23.45328236 547.03040406 23.42157266 550.49609375 23.484375 C551.28092133 23.50246719 552.0657489 23.52055939 552.87435913 23.53919983 C554.54988568 23.57762043 556.22545647 23.61415054 557.90106201 23.6489563 C562.21683358 23.73904373 566.53224176 23.84355115 570.84765625 23.94921875 C571.68978668 23.96967758 572.53191711 23.99013641 573.39956665 24.01121521 C582.44107004 24.23874392 591.46843463 24.65775228 600.49609375 25.203125 C600.49609375 26.853125 600.49609375 28.503125 600.49609375 30.203125 C599.83609375 30.203125 599.17609375 30.203125 598.49609375 30.203125 C598.35171875 30.96625 598.20734375 31.729375 598.05859375 32.515625 C596.92734089 37.92049975 596.92734089 37.92049975 594.421875 39.5625 C593.55949219 40.02140625 592.69710937 40.4803125 591.80859375 40.953125 C586.93549695 43.76158592 583.78962446 46.69400094 580.49609375 51.203125 C579.77421875 52.069375 579.05234375 52.935625 578.30859375 53.828125 C575.54289685 58.97804336 574.61326598 64.49877587 573.49609375 70.203125 C572.83609375 70.203125 572.17609375 70.203125 571.49609375 70.203125 C571.36332031 70.89019531 571.23054687 71.57726562 571.09375 72.28515625 C570.91714844 73.18621094 570.74054687 74.08726563 570.55859375 75.015625 C570.38457031 75.90894531 570.21054687 76.80226563 570.03125 77.72265625 C569.49609375 80.203125 569.49609375 80.203125 568.49609375 83.203125 C567.83609375 83.203125 567.17609375 83.203125 566.49609375 83.203125 C566.35171875 84.29625 566.20734375 85.389375 566.05859375 86.515625 C565.49609375 90.203125 565.49609375 90.203125 564.49609375 93.203125 C563.83609375 93.203125 563.17609375 93.203125 562.49609375 93.203125 C562.37234375 94.21375 562.24859375 95.224375 562.12109375 96.265625 C561.5152404 100.08250112 560.62415463 103.51812612 559.49609375 107.203125 C558.83609375 107.203125 558.17609375 107.203125 557.49609375 107.203125 C557.38652344 107.84378906 557.27695312 108.48445313 557.1640625 109.14453125 C556.17293794 114.55139777 554.77456687 119.17149686 552.49609375 124.203125 C551.75199709 126.52215017 551.1209534 128.84788479 550.49609375 131.203125 C549.83609375 131.203125 549.17609375 131.203125 548.49609375 131.203125 C548.398125 131.80898437 548.30015625 132.41484375 548.19921875 133.0390625 C547.19211506 138.68231593 545.66989565 143.71363683 543.3984375 148.9765625 C542.56116383 151.04256246 541.97733268 153.03010797 541.49609375 155.203125 C540.83609375 155.203125 540.17609375 155.203125 539.49609375 155.203125 C539.35171875 156.110625 539.20734375 157.018125 539.05859375 157.953125 C538.63199902 160.41789456 538.14535154 162.79159607 537.49609375 165.203125 C536.83609375 165.203125 536.17609375 165.203125 535.49609375 165.203125 C535.37234375 166.21375 535.24859375 167.224375 535.12109375 168.265625 C534.5152404 172.08250112 533.62415463 175.51812612 532.49609375 179.203125 C531.83609375 179.203125 531.17609375 179.203125 530.49609375 179.203125 C530.36332031 179.89019531 530.23054687 180.57726562 530.09375 181.28515625 C529.91714844 182.18621094 529.74054687 183.08726562 529.55859375 184.015625 C529.38457031 184.90894531 529.21054687 185.80226562 529.03125 186.72265625 C528.49609375 189.203125 528.49609375 189.203125 527.49609375 192.203125 C526.83609375 192.203125 526.17609375 192.203125 525.49609375 192.203125 C525.35171875 193.29625 525.20734375 194.389375 525.05859375 195.515625 C524.49609375 199.203125 524.49609375 199.203125 523.49609375 202.203125 C522.83609375 202.203125 522.17609375 202.203125 521.49609375 202.203125 C521.39296875 203.193125 521.28984375 204.183125 521.18359375 205.203125 C520.6851841 208.70603225 519.63428356 211.72885843 518.328125 215.00390625 C516.81817007 218.99500778 515.67997892 223.10570681 514.49609375 227.203125 C513.83609375 227.203125 513.17609375 227.203125 512.49609375 227.203125 C512.35171875 228.151875 512.20734375 229.100625 512.05859375 230.078125 C511.49609375 233.203125 511.49609375 233.203125 510.49609375 235.203125 C511.21974121 235.22294434 511.94338867 235.24276367 512.68896484 235.26318359 C527.04751452 235.67511853 541.25340891 236.28548247 555.49609375 238.203125 C555.49609375 238.863125 555.49609375 239.523125 555.49609375 240.203125 C556.23214844 240.26371094 556.96820312 240.32429687 557.7265625 240.38671875 C558.70238281 240.47050781 559.67820312 240.55429688 560.68359375 240.640625 C562.12798828 240.76244141 562.12798828 240.76244141 563.6015625 240.88671875 C566.28258977 241.17978651 568.86239235 241.63016254 571.49609375 242.203125 C571.49609375 242.863125 571.49609375 243.523125 571.49609375 244.203125 C573.22859375 244.38875 573.22859375 244.38875 574.99609375 244.578125 C579.2795975 245.10591385 583.32962047 246.08710537 587.49609375 247.203125 C587.49609375 247.863125 587.49609375 248.523125 587.49609375 249.203125 C590.79609375 249.863125 594.09609375 250.523125 597.49609375 251.203125 C597.49609375 251.863125 597.49609375 252.523125 597.49609375 253.203125 C598.19734375 253.326875 598.89859375 253.450625 599.62109375 253.578125 C602.67265762 254.24150845 605.54950313 255.17524455 608.49609375 256.203125 C608.49609375 256.863125 608.49609375 257.523125 608.49609375 258.203125 C609.20121094 258.30496094 609.90632812 258.40679687 610.6328125 258.51171875 C613.9066902 259.30227312 616.38193842 260.60836234 619.30859375 262.265625 C620.77232422 263.08740234 620.77232422 263.08740234 622.265625 263.92578125 C623.36970703 264.55806641 623.36970703 264.55806641 624.49609375 265.203125 C624.49609375 265.863125 624.49609375 266.523125 624.49609375 267.203125 C626.47609375 267.863125 628.45609375 268.523125 630.49609375 269.203125 C630.49609375 269.863125 630.49609375 270.523125 630.49609375 271.203125 C633.14838187 272.27837694 635.77977829 273.29768651 638.49609375 274.203125 C638.82609375 274.863125 639.15609375 275.523125 639.49609375 276.203125 C647.19659117 279.54464822 655.20023549 281.92242799 663.49609375 283.203125 C663.49609375 283.863125 663.49609375 284.523125 663.49609375 285.203125 C672.43093743 286.09820773 681.3345326 286.33792553 690.30859375 286.390625 C691.36941162 286.40351563 692.43022949 286.41640625 693.52319336 286.4296875 C699.83621032 286.43759793 705.38907383 285.81762452 711.49609375 284.203125 C711.82609375 278.923125 712.15609375 273.643125 712.49609375 268.203125 C713.15609375 268.203125 713.81609375 268.203125 714.49609375 268.203125 C714.61984375 267.275 714.61984375 267.275 714.74609375 266.328125 C715.49609375 264.203125 715.49609375 264.203125 717.55859375 262.953125 C718.19796875 262.705625 718.83734375 262.458125 719.49609375 262.203125 C719.49609375 261.543125 719.49609375 260.883125 719.49609375 260.203125 C723.44535523 258.22849426 728.19172945 258.76601043 732.49609375 259.203125 C736.07146331 260.89672111 737.82074911 262.09801558 739.87109375 265.453125 C741.1839007 271.22947558 741.16524277 276.86482697 738.49609375 282.203125 C736.3462936 284.46171022 734.09484803 286.47470824 731.49609375 288.203125 C730.83609375 288.203125 730.17609375 288.203125 729.49609375 288.203125 C729.49609375 288.863125 729.49609375 289.523125 729.49609375 290.203125 C717.40559244 293.26321729 705.85529111 293.68106836 693.43359375 293.578125 C692.48642487 293.57480164 691.53925598 293.57147827 690.56338501 293.5680542 C674.67810137 293.50255203 658.67748955 293.40585234 643.49609375 288.203125 C641.04468079 287.63095367 638.58586858 287.08968204 636.12109375 286.578125 C634.25324219 286.18753906 634.25324219 286.18753906 632.34765625 285.7890625 C630.93613281 285.49902344 630.93613281 285.49902344 629.49609375 285.203125 C629.49609375 284.543125 629.49609375 283.883125 629.49609375 283.203125 C628.36171875 283.079375 627.22734375 282.955625 626.05859375 282.828125 C621.4627159 282.26083417 616.99708126 281.27627712 612.49609375 280.203125 C612.49609375 279.543125 612.49609375 278.883125 612.49609375 278.203125 C611.65046875 278.14253906 610.80484375 278.08195312 609.93359375 278.01953125 C603.76010155 277.56353467 597.62919991 277.04492388 591.49609375 276.203125 C591.49609375 275.543125 591.49609375 274.883125 591.49609375 274.203125 C590.23796875 274.14253906 588.97984375 274.08195312 587.68359375 274.01953125 C585.95442432 273.93495231 584.22525781 273.85031359 582.49609375 273.765625 C581.26632812 273.70665039 581.26632812 273.70665039 580.01171875 273.64648438 C575.97856368 273.44788204 571.94988704 273.23508053 567.92163086 272.95141602 C557.29291931 272.21052819 546.7116232 272.00648164 536.05859375 272.015625 C535.18912109 272.0148999 534.31964844 272.0141748 533.42382812 272.01342773 C520.65128316 272.0145991 508.0559286 272.48247617 495.33984375 273.765625 C491.03286336 274.19903183 486.82310956 274.2840038 482.49609375 274.203125 C482.49609375 274.863125 482.49609375 275.523125 482.49609375 276.203125 C480.65144531 276.49316406 480.65144531 276.49316406 478.76953125 276.7890625 C477.13667647 277.05182074 475.50386629 277.31485625 473.87109375 277.578125 C472.65873047 277.76761719 472.65873047 277.76761719 471.421875 277.9609375 C466.92569306 278.69202399 462.80923777 279.70079394 458.49609375 281.203125 C456.5453284 281.61568895 454.58656776 281.99255627 452.62109375 282.328125 C451.65429688 282.49570312 450.6875 282.66328125 449.69140625 282.8359375 C448.96695313 282.95710938 448.2425 283.07828125 447.49609375 283.203125 C447.82609375 281.223125 448.15609375 279.243125 448.49609375 277.203125 C449.15609375 277.203125 449.81609375 277.203125 450.49609375 277.203125 C450.64884766 276.00816406 450.64884766 276.00816406 450.8046875 274.7890625 C451.66787787 270.31217686 453.07881451 266.13356159 454.55859375 261.828125 C454.84025391 260.99667969 455.12191406 260.16523438 455.41210938 259.30859375 C456.10266476 257.27204059 456.79881554 255.23738619 457.49609375 253.203125 C458.15609375 253.203125 458.81609375 253.203125 459.49609375 253.203125 C459.62886719 252.44386719 459.76164063 251.68460938 459.8984375 250.90234375 C460.07503906 249.90847656 460.25164063 248.91460937 460.43359375 247.890625 C460.60761719 246.90449219 460.78164063 245.91835937 460.9609375 244.90234375 C461.49609375 242.203125 461.49609375 242.203125 462.49609375 239.203125 C463.15609375 239.203125 463.81609375 239.203125 464.49609375 239.203125 C464.60566406 238.56246094 464.71523438 237.92179688 464.828125 237.26171875 C465.81924956 231.85485223 467.21762063 227.23475314 469.49609375 222.203125 C470.24019041 219.88409983 470.8712341 217.55836521 471.49609375 215.203125 C472.15609375 215.203125 472.81609375 215.203125 473.49609375 215.203125 C473.64046875 214.295625 473.78484375 213.388125 473.93359375 212.453125 C474.36018848 209.98835544 474.84683596 207.61465393 475.49609375 205.203125 C476.15609375 205.203125 476.81609375 205.203125 477.49609375 205.203125 C477.61984375 204.1925 477.74359375 203.181875 477.87109375 202.140625 C478.4769471 198.32374888 479.36803287 194.88812388 480.49609375 191.203125 C481.15609375 191.203125 481.81609375 191.203125 482.49609375 191.203125 C483.15609375 187.903125 483.81609375 184.603125 484.49609375 181.203125 C485.15609375 181.203125 485.81609375 181.203125 486.49609375 181.203125 C486.5940625 180.52507812 486.69203125 179.84703125 486.79296875 179.1484375 C487.88433497 172.35562359 489.75820771 166.492327 492.49609375 160.203125 C494.82023553 154.59486984 496.9626221 149.08143297 498.49609375 143.203125 C499.15609375 143.203125 499.81609375 143.203125 500.49609375 143.203125 C500.82609375 140.893125 501.15609375 138.583125 501.49609375 136.203125 C497.64984753 139.47243429 495.49971207 144.08437522 493.37109375 148.578125 C492.49609375 150.203125 492.49609375 150.203125 490.49609375 151.203125 C489.44801334 153.17835346 488.44405265 155.17794009 487.49609375 157.203125 C486.83609375 157.203125 486.17609375 157.203125 485.49609375 157.203125 C485.18671875 158.151875 484.87734375 159.100625 484.55859375 160.078125 C483.49609375 163.203125 483.49609375 163.203125 482.49609375 165.203125 C481.83609375 165.203125 481.17609375 165.203125 480.49609375 165.203125 C480.39167969 165.75484375 480.28726563 166.3065625 480.1796875 166.875 C479.35048991 169.69901009 478.06809725 171.92867416 476.55859375 174.453125 C476.03394531 175.34515625 475.50929688 176.2371875 474.96875 177.15625 C474.23978516 178.16945312 474.23978516 178.16945312 473.49609375 179.203125 C472.83609375 179.203125 472.17609375 179.203125 471.49609375 179.203125 C471.26921875 179.863125 471.04234375 180.523125 470.80859375 181.203125 C469.10821225 185.08971128 467.09986291 188.83992317 464.49609375 192.203125 C463.83609375 192.203125 463.17609375 192.203125 462.49609375 192.203125 C462.37234375 193.0384375 462.37234375 193.0384375 462.24609375 193.890625 C461.26452755 196.91712079 459.50309142 198.73738501 457.49609375 201.203125 C456.08494919 203.49360218 454.79057312 205.84513146 453.49609375 208.203125 C451.87109375 211.140625 451.87109375 211.140625 450.49609375 213.203125 C449.83609375 213.203125 449.17609375 213.203125 448.49609375 213.203125 C448.20734375 214.1725 447.91859375 215.141875 447.62109375 216.140625 C446.49609375 219.203125 446.49609375 219.203125 444.49609375 220.203125 C443.11458387 222.52049641 441.78862391 224.8376451 440.49609375 227.203125 C437.73851799 232.08191288 437.73851799 232.08191288 435.49609375 233.203125 C434.78453125 234.87375 434.78453125 234.87375 434.05859375 236.578125 C432.69925182 239.73179828 432.02099376 241.09904166 429.49609375 243.203125 C426.29132995 245.98987613 424.51080674 249.52828851 422.49609375 253.203125 C419.73851799 258.08191288 419.73851799 258.08191288 417.49609375 259.203125 C416.45259536 260.84290818 415.46427367 262.51777476 414.49609375 264.203125 C413.65011246 265.62469483 412.79548488 267.04114454 411.93359375 268.453125 C411.51980469 269.13890625 411.10601563 269.8246875 410.6796875 270.53125 C409.49609375 272.203125 409.49609375 272.203125 407.49609375 273.203125 C406.36258841 275.21982327 406.36258841 275.21982327 405.49609375 277.203125 C404.83609375 277.203125 404.17609375 277.203125 403.49609375 277.203125 C403.18671875 278.0075 402.87734375 278.811875 402.55859375 279.640625 C401.49609375 282.203125 401.49609375 282.203125 400.49609375 283.203125 C398.04248296 283.16310375 395.63007714 283.05401436 393.18359375 282.890625 C392.44044922 282.84357422 391.69730469 282.79652344 390.93164062 282.74804688 C384.77709329 282.33570748 378.63566076 281.79605997 372.49609375 281.203125 C371.61783936 281.12022217 370.73958496 281.03731934 369.8347168 280.9519043 C363.61700149 280.32403274 363.61700149 280.32403274 362.49609375 279.203125 C360.6969121 278.98490461 358.88988913 278.83089284 357.08203125 278.703125 C355.93839111 278.62118896 354.79475098 278.53925293 353.61645508 278.45483398 C352.38048584 278.37177002 351.1445166 278.28870605 349.87109375 278.203125 C348.61901123 278.11554932 347.36692871 278.02797363 346.0769043 277.93774414 C336.83795768 277.31043352 327.59865402 276.8436304 318.34326172 276.54492188 C317.4513916 276.51333984 316.55952148 276.48175781 315.640625 276.44921875 C314.86050049 276.42529053 314.08037598 276.4013623 313.27661133 276.37670898 C311.49609375 276.203125 311.49609375 276.203125 310.49609375 275.203125 C308.28958719 275.10300099 306.07986989 275.0723132 303.87109375 275.0703125 C302.87795166 275.06887741 302.87795166 275.06887741 301.86474609 275.06741333 C300.46256414 275.06673174 299.06037905 275.06858458 297.65820312 275.07275391 C295.50513662 275.07810254 293.35227873 275.0728083 291.19921875 275.06640625 C289.83984329 275.06706704 288.48046795 275.06834821 287.12109375 275.0703125 C285.25324219 275.07200439 285.25324219 275.07200439 283.34765625 275.07373047 C280.59703944 274.87740373 280.59703944 274.87740373 279.49609375 276.203125 C277.64356091 276.43198831 275.78324821 276.59847393 273.921875 276.73828125 C272.77912109 276.82529297 271.63636719 276.91230469 270.45898438 277.00195312 C269.25435547 277.08896484 268.04972656 277.17597656 266.80859375 277.265625 C265.62330078 277.35650391 264.43800781 277.44738281 263.21679688 277.54101562 C257.96068384 277.93308687 252.76936949 278.25392917 247.49609375 278.203125 C247.49609375 278.863125 247.49609375 279.523125 247.49609375 280.203125 C244.80983921 280.71076365 242.12240992 281.20939697 239.43359375 281.703125 C238.68142578 281.84621094 237.92925781 281.98929687 237.15429688 282.13671875 C232.518692 282.979556 228.20713225 283.35327762 223.49609375 283.203125 C223.49609375 283.863125 223.49609375 284.523125 223.49609375 285.203125 C195.38707786 288.43617887 195.38707786 288.43617887 184.90234375 288.9921875 C182.35298157 289.12184374 182.35298157 289.12184374 179.49609375 290.203125 C168.20203157 291.03618158 155.82809189 290.36912407 145.49609375 285.203125 C145.49609375 284.543125 145.49609375 283.883125 145.49609375 283.203125 C144.81546875 283.161875 144.13484375 283.120625 143.43359375 283.078125 C139.20276169 281.81787715 136.44085686 279.45147193 133.49609375 276.203125 C131.37227107 271.86313952 131.14093348 267.99778871 131.49609375 263.203125 C132.57543535 260.21417904 134.06533145 258.24496533 136.49609375 256.203125 C141.14007386 254.65513163 145.82127083 254.70718167 150.49609375 256.203125 C150.49609375 256.863125 150.49609375 257.523125 150.49609375 258.203125 C151.11484375 258.450625 151.73359375 258.698125 152.37109375 258.953125 C154.89135202 260.43562986 155.50841034 261.48699564 156.49609375 264.203125 C156.49609375 265.193125 156.49609375 266.183125 156.49609375 267.203125 C157.15609375 267.203125 157.81609375 267.203125 158.49609375 267.203125 C158.82222993 271.87774351 158.20192163 274.36986883 155.49609375 278.203125 C158.64788119 280.94217837 161.14426989 281.75581893 165.24609375 282.390625 C166.72335937 282.62845703 166.72335937 282.62845703 168.23046875 282.87109375 C168.978125 282.98066406 169.72578125 283.09023438 170.49609375 283.203125 C170.49609375 283.863125 170.49609375 284.523125 170.49609375 285.203125 C171.44226563 284.90148437 172.3884375 284.59984375 173.36328125 284.2890625 C178.04905367 282.94993417 182.79549818 282.42701705 187.62109375 281.828125 C195.0696385 280.84827546 201.90514125 279.48836314 209 276.97265625 C211.49609375 276.203125 211.49609375 276.203125 215.49609375 276.203125 C215.49609375 275.543125 215.49609375 274.883125 215.49609375 274.203125 C217.09865483 273.69800256 218.70321167 273.19920873 220.30859375 272.703125 C221.64857422 272.28546875 221.64857422 272.28546875 223.015625 271.859375 C225.49609375 271.203125 225.49609375 271.203125 228.49609375 271.203125 C228.49609375 270.543125 228.49609375 269.883125 228.49609375 269.203125 C240.41015625 263.24609375 240.41015625 263.24609375 242.50878906 262.20068359 C244.31155789 261.29575565 246.10370904 260.36975202 247.89453125 259.44140625 C250.49609375 258.203125 250.49609375 258.203125 252.49609375 258.203125 C252.49609375 257.543125 252.49609375 256.883125 252.49609375 256.203125 C253.931634 255.69752592 255.36961395 255.1988501 256.80859375 254.703125 C257.60910156 254.4246875 258.40960938 254.14625 259.234375 253.859375 C261.49609375 253.203125 261.49609375 253.203125 264.49609375 253.203125 C264.49609375 252.543125 264.49609375 251.883125 264.49609375 251.203125 C269.94109375 250.213125 269.94109375 250.213125 275.49609375 249.203125 C275.49609375 248.543125 275.49609375 247.883125 275.49609375 247.203125 C276.71425781 246.93757812 277.93242187 246.67203125 279.1875 246.3984375 C280.81122315 246.04178155 282.43491966 245.68500426 284.05859375 245.328125 C284.85845703 245.15410156 285.65832031 244.98007813 286.48242188 244.80078125 C290.14259329 243.99404959 293.7715905 243.15686714 297.37109375 242.109375 C303.44099442 240.34910381 309.23218396 240.09323185 315.49609375 240.203125 C315.49609375 239.543125 315.49609375 238.883125 315.49609375 238.203125 C321.45922541 238.17847926 327.4223277 238.160291 333.38549805 238.14819336 C335.41577673 238.14315222 337.44605177 238.13631943 339.47631836 238.12768555 C342.38786722 238.11561033 345.29936825 238.10989466 348.2109375 238.10546875 C349.58124367 238.09772682 349.58124367 238.09772682 350.97923279 238.08982849 C353.15184802 238.08963332 355.32436671 238.14100695 357.49609375 238.203125 C357.82609375 238.533125 358.15609375 238.863125 358.49609375 239.203125 C360.05197118 239.49956236 361.61844562 239.74093394 363.1875 239.95703125 C364.13173828 240.08916016 365.07597656 240.22128906 366.04882812 240.35742188 C367.04205078 240.49212891 368.03527344 240.62683594 369.05859375 240.765625 C370.05568359 240.90419922 371.05277344 241.04277344 372.08007812 241.18554688 C374.55159091 241.52848406 377.0235792 241.86749954 379.49609375 242.203125 C379.49609375 242.863125 379.49609375 243.523125 379.49609375 244.203125 C380.07617188 244.26371094 380.65625 244.32429687 381.25390625 244.38671875 C385.69702238 244.86329061 390.09514798 245.41321166 394.49609375 246.203125 C395.13224609 245.33300781 395.13224609 245.33300781 395.78125 244.4453125 C399.15952363 239.94589752 402.4697716 236.05070742 406.91796875 232.58984375 C408.75369719 230.97676555 410.0875667 229.19288159 411.49609375 227.203125 C410.78582031 226.88859375 410.07554687 226.5740625 409.34375 226.25 C408.42464844 225.82203125 407.50554688 225.3940625 406.55859375 224.953125 C405.64207031 224.53546875 404.72554687 224.1178125 403.78125 223.6875 C401.49609375 222.203125 401.49609375 222.203125 400.6796875 220.03125 C400.61910156 219.42796875 400.55851563 218.8246875 400.49609375 218.203125 C399.83609375 218.203125 399.17609375 218.203125 398.49609375 218.203125 C398.49609375 214.243125 398.49609375 210.283125 398.49609375 206.203125 C399.15609375 206.203125 399.81609375 206.203125 400.49609375 206.203125 C400.48521729 205.4702124 400.47434082 204.7372998 400.46313477 203.98217773 C400.37833998 193.1227926 400.82330971 182.29807368 401.2956543 171.45092773 C401.43435403 168.2480686 401.56607009 165.04497121 401.69726562 161.84179688 C401.78473888 159.78644053 401.87261508 157.73110128 401.9609375 155.67578125 C401.99952377 154.72776138 402.03811005 153.77974152 402.0778656 152.80299377 C402.25193542 148.90373773 402.46381224 145.08694621 403.09204102 141.23217773 C403.72860864 138.17263287 403.72860864 138.17263287 402.49609375 135.265625 C400.54383718 132.80076748 400.54383718 132.80076748 396.80859375 132.890625 C395.71546875 132.99375 394.62234375 133.096875 393.49609375 133.203125 C393.41359375 134.13125 393.33109375 135.059375 393.24609375 136.015625 C392.4998333 141.33678644 390.39390242 146.20731246 388.49609375 151.203125 C387.81928352 153.19971518 387.14647876 155.19777122 386.49609375 157.203125 C385.83609375 157.203125 385.17609375 157.203125 384.49609375 157.203125 C384.35171875 158.275625 384.20734375 159.348125 384.05859375 160.453125 C383.65859933 163.11975449 383.22017451 165.61712229 382.49609375 168.203125 C381.83609375 168.203125 381.17609375 168.203125 380.49609375 168.203125 C380.37234375 169.21375 380.24859375 170.224375 380.12109375 171.265625 C379.5152404 175.08250112 378.62415463 178.51812612 377.49609375 182.203125 C376.83609375 182.203125 376.17609375 182.203125 375.49609375 182.203125 C375.49609375 185.173125 375.49609375 188.143125 375.49609375 191.203125 C383.31407253 191.96959351 389.37576223 189.24229089 396.49609375 186.203125 C396.82609375 186.863125 397.15609375 187.523125 397.49609375 188.203125 C396.55859375 190.828125 396.55859375 190.828125 395.49609375 193.203125 C394.83609375 193.203125 394.17609375 193.203125 393.49609375 193.203125 C393.35171875 193.80125 393.20734375 194.399375 393.05859375 195.015625 C392.60884985 196.76462904 392.06717034 198.48989523 391.49609375 200.203125 C390.83609375 200.533125 390.17609375 200.863125 389.49609375 201.203125 C388.36258841 203.21982327 388.36258841 203.21982327 387.49609375 205.203125 C386.83609375 205.203125 386.17609375 205.203125 385.49609375 205.203125 C385.41359375 205.821875 385.33109375 206.440625 385.24609375 207.078125 C384.25783933 209.87817919 383.0924939 209.94426432 380.49609375 211.203125 C379.22804809 213.2367198 379.22804809 213.2367198 378.49609375 215.203125 C377.83609375 215.203125 377.17609375 215.203125 376.49609375 215.203125 C376.16609375 216.193125 375.83609375 217.183125 375.49609375 218.203125 C372.43359375 219.390625 372.43359375 219.390625 369.49609375 220.203125 C369.49609375 220.863125 369.49609375 221.523125 369.49609375 222.203125 C365.87635973 223.51939192 363.40042244 224.203125 359.49609375 224.203125 C359.49609375 224.863125 359.49609375 225.523125 359.49609375 226.203125 C354.21609375 226.203125 348.93609375 226.203125 343.49609375 226.203125 C343.49609375 225.543125 343.49609375 224.883125 343.49609375 224.203125 C342.54734375 224.05875 341.59859375 223.914375 340.62109375 223.765625 C337.49609375 223.203125 337.49609375 223.203125 335.49609375 222.203125 C335.49609375 221.543125 335.49609375 220.883125 335.49609375 220.203125 C334.87734375 219.89375 334.25859375 219.584375 333.62109375 219.265625 C332.24609375 218.578125 330.87109375 217.890625 329.49609375 217.203125 C327.26112175 217.74528607 327.26112175 217.74528607 324.87109375 218.640625 C324.05382812 218.92808594 323.2365625 219.21554688 322.39453125 219.51171875 C321.76804687 219.73988281 321.1415625 219.96804687 320.49609375 220.203125 C320.49609375 220.863125 320.49609375 221.523125 320.49609375 222.203125 C317.52609375 222.863125 314.55609375 223.523125 311.49609375 224.203125 C311.49609375 224.863125 311.49609375 225.523125 311.49609375 226.203125 C305.18994705 227.86358288 299.31983715 228.51578332 292.80859375 228.453125 C291.99326172 228.46085938 291.17792969 228.46859375 290.33789062 228.4765625 C285.66223994 228.46144318 281.89182793 227.9926646 277.49609375 226.203125 C277.49609375 225.543125 277.49609375 224.883125 277.49609375 224.203125 C276.41328125 223.8628125 276.41328125 223.8628125 275.30859375 223.515625 C271.94458555 221.94575451 270.00312688 219.91343108 267.49609375 217.203125 C266.83609375 216.543125 266.17609375 215.883125 265.49609375 215.203125 C264.83609375 215.203125 264.17609375 215.203125 263.49609375 215.203125 C263.49609375 215.863125 263.49609375 216.523125 263.49609375 217.203125 C257.74609375 220.203125 257.74609375 220.203125 255.49609375 220.203125 C255.49609375 220.863125 255.49609375 221.523125 255.49609375 222.203125 C252.52609375 222.863125 249.55609375 223.523125 246.49609375 224.203125 C246.49609375 224.863125 246.49609375 225.523125 246.49609375 226.203125 C223.79412322 231.22806709 223.79412322 231.22806709 213.49609375 226.203125 C209.86149812 223.3250122 208.79731794 219.76864226 207.94140625 215.3203125 C206.67634381 202.51541216 209.13512668 189.88867601 214.49609375 178.203125 C214.97949219 177.07132813 215.46289062 175.93953125 215.9609375 174.7734375 C216.44691406 173.63648438 216.93289063 172.49953125 217.43359375 171.328125 C217.69229248 170.71880127 217.95099121 170.10947754 218.2175293 169.48168945 C219.6694215 166.07530965 221.20237756 162.72616153 222.80859375 159.390625 C224.78672561 155.02396049 225.19355839 150.96805699 225.49609375 146.203125 C217.70855405 146.67037738 214.14322471 150.25190612 209.24609375 155.765625 C207.22900576 158.11347204 205.79936787 160.39370863 204.49609375 163.203125 C203.83609375 163.203125 203.17609375 163.203125 202.49609375 163.203125 C201.83609375 165.183125 201.17609375 167.163125 200.49609375 169.203125 C199.83609375 169.203125 199.17609375 169.203125 198.49609375 169.203125 C198.37234375 169.76 198.24859375 170.316875 198.12109375 170.890625 C197.4363252 173.42426864 196.50475612 175.78233532 195.49609375 178.203125 C194.83609375 178.203125 194.17609375 178.203125 193.49609375 178.203125 C193.38265625 178.89277344 193.26921875 179.58242187 193.15234375 180.29296875 C192.40360684 183.6132604 191.25609648 186.60462977 189.99609375 189.765625 C187.95057667 194.89175426 187.95057667 194.89175426 186.49609375 200.203125 C185.83609375 200.203125 185.17609375 200.203125 184.49609375 200.203125 C184.37234375 201.316875 184.24859375 202.430625 184.12109375 203.578125 C183.51151833 208.50773491 182.5213569 213.34556755 181.49609375 218.203125 C180.83609375 218.203125 180.17609375 218.203125 179.49609375 218.203125 C179.49609375 219.853125 179.49609375 221.503125 179.49609375 223.203125 C174.94287505 223.22802063 170.38969682 223.24607687 165.83642578 223.25805664 C164.29052031 223.26305592 162.7446195 223.26985753 161.19873047 223.27856445 C158.96450647 223.29082456 156.73034549 223.29639749 154.49609375 223.30078125 C153.81554932 223.30594254 153.13500488 223.31110382 152.43383789 223.31642151 C147.69621654 223.31696362 143.1763304 222.86356855 138.49609375 222.203125 C138.49609375 220.553125 138.49609375 218.903125 138.49609375 217.203125 C139.15609375 217.203125 139.81609375 217.203125 140.49609375 217.203125 C140.59921875 216.048125 140.70234375 214.893125 140.80859375 213.703125 C141.27256461 209.97828852 142.26240602 206.83335278 143.6640625 203.3671875 C145.19143139 199.39459424 146.3153715 195.28959633 147.49609375 191.203125 C148.15609375 191.203125 148.81609375 191.203125 149.49609375 191.203125 C149.59921875 190.048125 149.70234375 188.893125 149.80859375 187.703125 C150.27256461 183.97828852 151.26240602 180.83335278 152.6640625 177.3671875 C154.19143139 173.39459424 155.3153715 169.28959633 156.49609375 165.203125 C157.15609375 165.203125 157.81609375 165.203125 158.49609375 165.203125 C158.61984375 164.0275 158.74359375 162.851875 158.87109375 161.640625 C159.3604531 157.66192074 160.30161425 154.02545941 161.49609375 150.203125 C162.15609375 150.203125 162.81609375 150.203125 163.49609375 150.203125 C163.62886719 149.59984375 163.76164062 148.9965625 163.8984375 148.375 C164.07503906 147.57578125 164.25164062 146.7765625 164.43359375 145.953125 C164.69462891 144.76976562 164.69462891 144.76976562 164.9609375 143.5625 C165.44364975 141.43433797 165.95772553 139.31779658 166.49609375 137.203125 C163.37418401 137.58272828 160.4402618 138.07557128 157.49609375 139.203125 C155.34943658 142.15546947 155.34943658 142.15546947 154.49609375 145.203125 C153.83609375 145.203125 153.17609375 145.203125 152.49609375 145.203125 C152.03203125 146.8428125 152.03203125 146.8428125 151.55859375 148.515625 C150.91271478 150.75720494 150.23378205 152.9900601 149.49609375 155.203125 C148.83609375 155.203125 148.17609375 155.203125 147.49609375 155.203125 C146.83609375 158.173125 146.17609375 161.143125 145.49609375 164.203125 C144.83609375 164.203125 144.17609375 164.203125 143.49609375 164.203125 C142.01109375 169.648125 142.01109375 169.648125 140.49609375 175.203125 C139.83609375 175.203125 139.17609375 175.203125 138.49609375 175.203125 C137.83609375 178.173125 137.17609375 181.143125 136.49609375 184.203125 C135.83609375 184.203125 135.17609375 184.203125 134.49609375 184.203125 C134.36332031 184.93917969 134.23054688 185.67523438 134.09375 186.43359375 C133.91714844 187.40941406 133.74054688 188.38523438 133.55859375 189.390625 C133.29755859 190.83501953 133.29755859 190.83501953 133.03125 192.30859375 C132.54372025 194.94552472 132.0293827 197.5751155 131.49609375 200.203125 C130.83609375 200.203125 130.17609375 200.203125 129.49609375 200.203125 C129.39296875 201.04875 129.28984375 201.894375 129.18359375 202.765625 C128.00106188 208.67828436 125.22967487 213.86613329 122.49609375 219.203125 C121.83609375 219.203125 121.17609375 219.203125 120.49609375 219.203125 C120.39296875 219.8425 120.28984375 220.481875 120.18359375 221.140625 C119.95671875 221.82125 119.72984375 222.501875 119.49609375 223.203125 C118.50609375 223.533125 117.51609375 223.863125 116.49609375 224.203125 C116.49609375 224.863125 116.49609375 225.523125 116.49609375 226.203125 C101.01184908 232.39682287 101.01184908 232.39682287 92.5390625 229.125 C91.86488281 228.82078125 91.19070312 228.5165625 90.49609375 228.203125 C89.46548828 227.76806641 89.46548828 227.76806641 88.4140625 227.32421875 C86.17074777 226.01295332 85.12900167 224.61562106 83.62109375 222.515625 C82.16837662 220.6183208 82.16837662 220.6183208 80.49609375 219.203125 C77.18642939 219.08500491 77.18642939 219.08500491 74.49609375 220.203125 C74.49609375 220.863125 74.49609375 221.523125 74.49609375 222.203125 C70.37645605 223.49556036 66.82777692 224.46565125 62.49609375 224.203125 C62.49609375 224.863125 62.49609375 225.523125 62.49609375 226.203125 C54.44417164 227.39600235 46.520155 227.89240105 38.49609375 226.203125 C38.49609375 225.543125 38.49609375 224.883125 38.49609375 224.203125 C36.85640625 223.9865625 36.85640625 223.9865625 35.18359375 223.765625 C31.49609375 223.203125 31.49609375 223.203125 28.49609375 222.203125 C28.49609375 221.543125 28.49609375 220.883125 28.49609375 220.203125 C27.71234375 219.89375 26.92859375 219.584375 26.12109375 219.265625 C23.49609375 218.203125 23.49609375 218.203125 21.49609375 217.203125 C21.49609375 216.543125 21.49609375 215.883125 21.49609375 215.203125 C20.17609375 214.543125 18.85609375 213.883125 17.49609375 213.203125 C17.49609375 212.543125 17.49609375 211.883125 17.49609375 211.203125 C14.31380958 210.85925268 14.31380958 210.85925268 12.12109375 213.453125 C11.25484375 214.360625 10.38859375 215.268125 9.49609375 216.203125 C4.8474451 220.203125 4.8474451 220.203125 2.49609375 220.203125 C2.16609375 221.193125 1.83609375 222.183125 1.49609375 223.203125 C0.16276042 223.53645833 -1.17057292 223.86979167 -2.50390625 224.203125 C-2.83390625 225.193125 -3.16390625 226.183125 -3.50390625 227.203125 C-4.81924035 227.90463652 -6.15508217 228.56838425 -7.50390625 229.203125 C-8.24640625 229.9765625 -8.24640625 229.9765625 -9.00390625 230.765625 C-10.7785081 232.46628511 -12.11396881 232.79106682 -14.50390625 233.203125 C-14.50390625 233.863125 -14.50390625 234.523125 -14.50390625 235.203125 C-20.25390625 238.203125 -20.25390625 238.203125 -22.50390625 238.203125 C-22.50390625 238.863125 -22.50390625 239.523125 -22.50390625 240.203125 C-25.96890625 241.193125 -25.96890625 241.193125 -29.50390625 242.203125 C-29.50390625 242.863125 -29.50390625 243.523125 -29.50390625 244.203125 C-30.77230151 244.70927798 -32.04373727 245.20781599 -33.31640625 245.703125 C-34.37794922 246.12078125 -34.37794922 246.12078125 -35.4609375 246.546875 C-37.50390625 247.203125 -37.50390625 247.203125 -40.50390625 247.203125 C-40.50390625 247.863125 -40.50390625 248.523125 -40.50390625 249.203125 C-45.45390625 250.193125 -45.45390625 250.193125 -50.50390625 251.203125 C-50.50390625 251.863125 -50.50390625 252.523125 -50.50390625 253.203125 C-68.65005836 256.45318209 -84.35775414 256.45318209 -102.50390625 253.203125 C-102.50390625 252.543125 -102.50390625 251.883125 -102.50390625 251.203125 C-105.80390625 250.543125 -109.10390625 249.883125 -112.50390625 249.203125 C-112.50390625 248.543125 -112.50390625 247.883125 -112.50390625 247.203125 C-113.22578125 247.079375 -113.94765625 246.955625 -114.69140625 246.828125 C-117.46112519 246.2126319 -119.90094165 245.31868126 -122.50390625 244.203125 C-122.50390625 243.543125 -122.50390625 242.883125 -122.50390625 242.203125 C-123.43203125 241.935 -124.36015625 241.666875 -125.31640625 241.390625 C-128.35824021 240.25739274 -129.44484979 239.55633239 -131.50390625 237.203125 C-132.98890625 236.213125 -132.98890625 236.213125 -134.50390625 235.203125 C-134.50390625 234.543125 -134.50390625 233.883125 -134.50390625 233.203125 C-135.38369141 232.82607422 -135.38369141 232.82607422 -136.28125 232.44140625 C-141.61498292 229.46988896 -145.71281983 223.53156271 -148.50390625 218.203125 C-149.08785156 217.17832031 -149.08785156 217.17832031 -149.68359375 216.1328125 C-156.2987106 203.95943179 -157.02042102 191.53844943 -156.87890625 178.015625 C-156.87491821 177.24509796 -156.87093018 176.47457092 -156.86682129 175.68069458 C-156.77466681 160.51517788 -156.05630642 146.16386951 -149.50390625 132.203125 C-149.17390625 131.213125 -148.84390625 130.223125 -148.50390625 129.203125 C-147.84390625 129.203125 -147.18390625 129.203125 -146.50390625 129.203125 C-146.40078125 128.3575 -146.29765625 127.511875 -146.19140625 126.640625 C-144.84655781 119.91638279 -141.3938374 113.84814263 -138.31640625 107.765625 C-137.94837891 107.03408203 -137.58035156 106.30253906 -137.20117188 105.54882812 C-136.30392986 103.76599659 -135.40418032 101.98442737 -134.50390625 100.203125 C-133.84390625 100.203125 -133.18390625 100.203125 -132.50390625 100.203125 C-132.21515625 99.06875 -131.92640625 97.934375 -131.62890625 96.765625 C-131.07203125 95.0021875 -131.07203125 95.0021875 -130.50390625 93.203125 C-129.51390625 92.708125 -129.51390625 92.708125 -128.50390625 92.203125 C-127.4981301 90.20602351 -126.49916412 88.20548905 -125.50390625 86.203125 C-124.13231585 84.23345739 -122.71312484 82.29628284 -121.25390625 80.390625 C-120.45855469 79.34777344 -119.66320312 78.30492188 -118.84375 77.23046875 C-116.2776959 73.91044883 -113.71147414 70.59099291 -111.1171875 67.29296875 C-110.04812798 65.90810957 -109.00322781 64.50423453 -107.984375 63.08203125 C-105.06276077 59.00410532 -102.09509415 55.82983509 -98.1953125 52.6796875 C-96.53355048 51.2290038 -95.28954509 49.75542496 -93.94140625 48.015625 C-90.82229409 44.22141733 -87.09384365 41.29210261 -83.25390625 38.265625 C-82.62669678 37.76844971 -81.9994873 37.27127441 -81.35327148 36.7590332 C-76.76113046 33.203125 -76.76113046 33.203125 -74.50390625 33.203125 C-74.17390625 32.213125 -73.84390625 31.223125 -73.50390625 30.203125 C-70.44140625 29.015625 -70.44140625 29.015625 -67.50390625 28.203125 C-67.50390625 27.543125 -67.50390625 26.883125 -67.50390625 26.203125 C-65.52390625 25.543125 -63.54390625 24.883125 -61.50390625 24.203125 C-61.50390625 23.543125 -61.50390625 22.883125 -61.50390625 22.203125 C-55.75390625 19.203125 -55.75390625 19.203125 -53.50390625 19.203125 C-53.50390625 18.543125 -53.50390625 17.883125 -53.50390625 17.203125 C-50.59790364 15.94647522 -48.70786041 15.203125 -45.50390625 15.203125 C-45.50390625 14.543125 -45.50390625 13.883125 -45.50390625 13.203125 C-44.23551099 12.69697202 -42.96407523 12.19843401 -41.69140625 11.703125 C-40.98371094 11.4246875 -40.27601562 11.14625 -39.546875 10.859375 C-37.50390625 10.203125 -37.50390625 10.203125 -34.50390625 10.203125 C-34.50390625 9.543125 -34.50390625 8.883125 -34.50390625 8.203125 C-33.66988281 7.94917969 -32.83585937 7.69523438 -31.9765625 7.43359375 C-26.12187032 5.64298343 -20.28374716 3.83709282 -14.50390625 1.81640625 C-9.67939116 0.33701393 -5.02070486 0.03136663 0 0 Z M398.49609375 119.203125 C398.82609375 119.863125 399.15609375 120.523125 399.49609375 121.203125 C399.82609375 120.543125 400.15609375 119.883125 400.49609375 119.203125 C399.83609375 119.203125 399.17609375 119.203125 398.49609375 119.203125 Z M82.49609375 134.203125 C82.49609375 134.863125 82.49609375 135.523125 82.49609375 136.203125 C81.85671875 136.450625 81.21734375 136.698125 80.55859375 136.953125 C78.29714368 138.00000794 78.29714368 138.00000794 77.93359375 140.265625 C77.78921875 140.905 77.64484375 141.544375 77.49609375 142.203125 C76.50609375 142.533125 75.51609375 142.863125 74.49609375 143.203125 C72.8478918 145.80554914 72.49609375 147.06561279 72.49609375 150.203125 C71.50609375 150.533125 70.51609375 150.863125 69.49609375 151.203125 C69.37234375 152.0075 69.24859375 152.811875 69.12109375 153.640625 C68.91484375 154.48625 68.70859375 155.331875 68.49609375 156.203125 C67.83609375 156.533125 67.17609375 156.863125 66.49609375 157.203125 C65.58883941 159.31639925 65.58883941 159.31639925 64.87109375 161.765625 C64.61070312 162.59191406 64.3503125 163.41820312 64.08203125 164.26953125 C63.88867188 164.90761719 63.6953125 165.54570312 63.49609375 166.203125 C62.83609375 166.203125 62.17609375 166.203125 61.49609375 166.203125 C58.26698687 173.81459122 56.928853 181.93484155 59.328125 190 C60.34868908 192.53735859 60.34868908 192.53735859 63.49609375 193.203125 C63.49609375 193.863125 63.49609375 194.523125 63.49609375 195.203125 C66.78305608 196.00265638 68.20632567 196.29971436 71.49609375 195.203125 C71.49609375 194.543125 71.49609375 193.883125 71.49609375 193.203125 C72.19734375 193.0175 72.89859375 192.831875 73.62109375 192.640625 C80.29461911 189.30386232 85.77680426 181.00134872 88.49609375 174.203125 C88.49609375 172.883125 88.49609375 171.563125 88.49609375 170.203125 C89.15609375 170.203125 89.81609375 170.203125 90.49609375 170.203125 C91.99430434 166.83215117 92.49609375 164.99870381 92.49609375 161.203125 C93.15609375 160.873125 93.81609375 160.543125 94.49609375 160.203125 C97.1221671 152.90847681 98.35332978 142.1883375 95.60546875 134.8125 C94.57596931 133.04197746 94.57596931 133.04197746 92.49609375 132.203125 C87.16642167 131.86220459 87.16642167 131.86220459 82.49609375 134.203125 Z M326.49609375 143.203125 C326.49609375 143.863125 326.49609375 144.523125 326.49609375 145.203125 C325.73296875 145.43 324.96984375 145.656875 324.18359375 145.890625 C320.92079105 147.48408679 320.03348666 148.96650836 318.49609375 152.203125 C318.49609375 152.863125 318.49609375 153.523125 318.49609375 154.203125 C317.50609375 154.533125 316.51609375 154.863125 315.49609375 155.203125 C314.0686376 157.11640418 314.0686376 157.11640418 312.87109375 159.453125 C312.44570313 160.22140625 312.0203125 160.9896875 311.58203125 161.78125 C310.46976478 164.26184429 309.92325035 166.52627697 309.49609375 169.203125 C308.83609375 169.203125 308.17609375 169.203125 307.49609375 169.203125 C304.74969658 175.97103232 302.57714856 183.23909309 305.328125 190.35546875 C306.73508603 192.93226255 307.82089169 194.86552397 310.49609375 196.203125 C311.99366246 196.29812003 313.49552307 196.33299698 314.99609375 196.328125 C315.79015625 196.33070313 316.58421875 196.33328125 317.40234375 196.3359375 C319.55527909 196.33590496 319.55527909 196.33590496 321.49609375 195.203125 C321.49609375 194.543125 321.49609375 193.883125 321.49609375 193.203125 C322.23214844 192.9865625 322.96820313 192.77 323.7265625 192.546875 C327.22419148 190.84985897 328.59355577 188.87342418 330.80859375 185.703125 C331.50597656 184.7234375 332.20335937 183.74375 332.921875 182.734375 C334.67213139 180.41687317 334.67213139 180.41687317 334.49609375 178.203125 C335.15609375 178.203125 335.81609375 178.203125 336.49609375 178.203125 C337.48538836 176.33344895 338.46209844 174.45711122 339.43359375 172.578125 C339.97886719 171.53398437 340.52414062 170.48984375 341.0859375 169.4140625 C342.46279092 166.27895582 343.09451591 163.58857868 343.49609375 160.203125 C344.15609375 160.203125 344.81609375 160.203125 345.49609375 160.203125 C347.21188911 153.7229336 349.09079448 146.50652792 346.6796875 140 C345.53552294 137.84186956 345.53552294 137.84186956 342.30859375 137.265625 C336.28009972 137.16679723 331.38386118 139.79649922 326.49609375 143.203125 Z " fill="#093BA1" transform="translate(157.50390625,0.796875)"/>
<path d="M0 0 C1.15249741 0.0377504 2.30499481 0.07550079 3.49241638 0.11439514 C4.79368973 0.15451218 6.09496307 0.19462921 7.43566895 0.23596191 C8.86661652 0.28525565 10.29756024 0.33466119 11.72850037 0.38417053 C13.1843729 0.43088817 14.64026006 0.4771524 16.09616089 0.52297974 C19.93502869 0.64504145 23.77366632 0.77328598 27.61228943 0.90278625 C31.52655782 1.03375405 35.44101118 1.15891891 39.35545349 1.28456116 C47.04119409 1.53211289 54.72670092 1.78619166 62.41209412 2.04432678 C61.60737025 7.53177713 60.43282592 12.02359498 56.41209412 16.04432678 C54.42388099 16.44196941 52.42265072 16.78208027 50.41209412 17.04432678 C50.41209412 17.70432678 50.41209412 18.36432678 50.41209412 19.04432678 C49.50459412 19.72495178 48.59709412 20.40557678 47.66209412 21.10682678 C43.64201787 24.2695408 42.15092608 28.34948049 40.41209412 33.04432678 C39.75209412 33.04432678 39.09209412 33.04432678 38.41209412 33.04432678 C37.75209412 36.01432678 37.09209412 38.98432678 36.41209412 42.04432678 C35.75209412 42.04432678 35.09209412 42.04432678 34.41209412 42.04432678 C34.27932068 42.80358459 34.14654724 43.56284241 34.00975037 44.34510803 C33.8331488 45.33897522 33.65654724 46.33284241 33.47459412 47.35682678 C33.21355896 48.836026 33.21355896 48.836026 32.94725037 50.34510803 C32.41209412 53.04432678 32.41209412 53.04432678 31.41209412 56.04432678 C30.75209412 56.04432678 30.09209412 56.04432678 29.41209412 56.04432678 C29.32959412 57.15807678 29.24709412 58.27182678 29.16209412 59.41932678 C28.51148941 64.67993054 26.4826637 69.20524282 24.41209412 74.04432678 C22.68472623 78.36683977 21.20083356 82.69546446 19.91209412 87.16932678 C18.78020139 91.05687457 17.22391112 94.42069278 15.41209412 98.04432678 C14.62825368 100.69583641 14.01743558 103.34357257 13.41209412 106.04432678 C12.75209412 106.04432678 12.09209412 106.04432678 11.41209412 106.04432678 C11.27932068 106.73139709 11.14654724 107.41846741 11.00975037 108.12635803 C10.8331488 109.02741272 10.65654724 109.92846741 10.47459412 110.85682678 C10.30057068 111.75014709 10.12654724 112.64346741 9.94725037 113.56385803 C9.41209412 116.04432678 9.41209412 116.04432678 8.41209412 119.04432678 C7.75209412 119.04432678 7.09209412 119.04432678 6.41209412 119.04432678 C6.32959412 120.15807678 6.24709412 121.27182678 6.16209412 122.41932678 C5.51148941 127.67993054 3.4826637 132.20524282 1.41209412 137.04432678 C-0.94539618 142.943639 -2.82492719 148.94267004 -4.58790588 155.04432678 C-5.24790588 155.04432678 -5.90790588 155.04432678 -6.58790588 155.04432678 C-8.31719426 161.95591716 -8.31719426 161.95591716 -8.58790588 169.04432678 C-2.58609218 169.26257455 2.60443116 168.55001718 8.41209412 167.04432678 C8.41209412 166.38432678 8.41209412 165.72432678 8.41209412 165.04432678 C10.06209412 165.04432678 11.71209412 165.04432678 13.41209412 165.04432678 C13.41209412 166.03432678 13.41209412 167.02432678 13.41209412 168.04432678 C12.75209412 168.04432678 12.09209412 168.04432678 11.41209412 168.04432678 C11.18521912 168.86932678 10.95834412 169.69432678 10.72459412 170.54432678 C9.16268354 174.70942164 7.18359305 178.54442108 4.41209412 182.04432678 C3.75209412 182.04432678 3.09209412 182.04432678 2.41209412 182.04432678 C2.31928162 182.87963928 2.31928162 182.87963928 2.22459412 183.73182678 C1.06445702 187.03375544 -1.04350383 188.67340669 -3.58790588 191.04432678 C-4.35103088 191.86932678 -5.11415588 192.69432678 -5.90040588 193.54432678 C-9.79435051 197.16660085 -14.10137862 201.04432678 -19.58790588 201.04432678 C-19.58790588 201.70432678 -19.58790588 202.36432678 -19.58790588 203.04432678 C-24.15173151 204.18982883 -28.5419047 204.19323976 -33.21290588 204.16932678 C-33.97603088 204.17319397 -34.73915588 204.17706116 -35.52540588 204.18104553 C-38.8014195 204.17529814 -41.45928265 204.08720119 -44.58790588 203.04432678 C-44.58790588 202.38432678 -44.58790588 201.72432678 -44.58790588 201.04432678 C-45.49540588 200.79682678 -46.40290588 200.54932678 -47.33790588 200.29432678 C-50.69142077 199.00451336 -52.26498824 197.72461637 -54.58790588 195.04432678 C-55.18603088 195.37432678 -55.78415588 195.70432678 -56.40040588 196.04432678 C-58.58790588 197.04432678 -58.58790588 197.04432678 -61.58790588 197.04432678 C-61.58790588 197.70432678 -61.58790588 198.36432678 -61.58790588 199.04432678 C-70.3730672 203.75332215 -78.88068343 205.48611754 -88.58790588 207.04432678 C-90.25639956 207.36839117 -91.9240126 207.69741467 -93.58790588 208.04432678 C-93.58790588 207.38432678 -93.58790588 206.72432678 -93.58790588 206.04432678 C-94.57790588 206.10620178 -95.56790588 206.16807678 -96.58790588 206.23182678 C-101.056788 206.25924324 -104.50095197 204.76514948 -108.58790588 203.04432678 C-108.58790588 202.38432678 -108.58790588 201.72432678 -108.58790588 201.04432678 C-109.67071838 200.70401428 -109.67071838 200.70401428 -110.77540588 200.35682678 C-114.11999902 198.79601665 -116.10394548 196.74119808 -118.58790588 194.04432678 C-119.53665588 194.53932678 -120.48540588 195.03432678 -121.46290588 195.54432678 C-124.58790588 197.04432678 -124.58790588 197.04432678 -126.58790588 197.04432678 C-126.58790588 197.70432678 -126.58790588 198.36432678 -126.58790588 199.04432678 C-134.8244724 203.01120257 -142.24255067 206.51159454 -151.58790588 206.04432678 C-151.58790588 206.70432678 -151.58790588 207.36432678 -151.58790588 208.04432678 C-155.21790588 208.04432678 -158.84790588 208.04432678 -162.58790588 208.04432678 C-162.58790588 207.38432678 -162.58790588 206.72432678 -162.58790588 206.04432678 C-163.94915588 205.85870178 -163.94915588 205.85870178 -165.33790588 205.66932678 C-168.20878548 205.11723455 -170.17530705 204.652726 -172.58790588 203.04432678 C-172.91790588 202.05432678 -173.24790588 201.06432678 -173.58790588 200.04432678 C-174.24790588 199.71432678 -174.90790588 199.38432678 -175.58790588 199.04432678 C-176.96257391 194.99487913 -176.73456322 190.83361662 -176.71290588 186.60682678 C-176.71677307 185.85594788 -176.72064026 185.10506897 -176.72462463 184.33143616 C-176.71777195 180.43568361 -176.54092344 176.84883339 -175.58790588 173.04432678 C-174.92790588 173.04432678 -174.26790588 173.04432678 -173.58790588 173.04432678 C-173.40228088 171.28088928 -173.40228088 171.28088928 -173.21290588 169.48182678 C-172.72354654 165.50312253 -171.78238539 161.8666612 -170.58790588 158.04432678 C-169.92790588 158.04432678 -169.26790588 158.04432678 -168.58790588 158.04432678 C-167.92790588 155.07432678 -167.26790588 152.10432678 -166.58790588 149.04432678 C-165.92790588 149.04432678 -165.26790588 149.04432678 -164.58790588 149.04432678 C-164.45513245 148.42944397 -164.32235901 147.81456116 -164.18556213 147.18104553 C-164.00896057 146.37280334 -163.83235901 145.56456116 -163.65040588 144.73182678 C-163.47638245 143.93131897 -163.30235901 143.13081116 -163.12306213 142.30604553 C-162.58790588 140.04432678 -162.58790588 140.04432678 -161.58790588 137.04432678 C-160.92790588 137.04432678 -160.26790588 137.04432678 -159.58790588 137.04432678 C-159.42022725 135.08607984 -159.25379384 133.12772623 -159.08790588 131.16932678 C-158.99509338 130.07877991 -158.90228088 128.98823303 -158.80665588 127.86463928 C-158.6822763 126.26103114 -158.58790588 124.65275128 -158.58790588 123.04432678 C-164.29382069 124.88182477 -167.54792334 126.45840066 -171.58790588 131.04432678 C-172.49540588 131.93120178 -173.40290588 132.81807678 -174.33790588 133.73182678 C-176.60730731 135.83045992 -176.60730731 135.83045992 -177.58790588 138.04432678 C-178.24790588 138.04432678 -178.90790588 138.04432678 -179.58790588 138.04432678 C-180.66315782 140.6966149 -181.6824674 143.32801132 -182.58790588 146.04432678 C-183.24790588 146.37432678 -183.90790588 146.70432678 -184.58790588 147.04432678 C-185.30950013 148.68795812 -185.98142009 150.35483064 -186.58790588 152.04432678 C-187.24790588 152.04432678 -187.90790588 152.04432678 -188.58790588 152.04432678 C-188.77353088 153.37463928 -188.77353088 153.37463928 -188.96290588 154.73182678 C-189.53203325 157.74820181 -190.35405024 160.24758733 -191.58790588 163.04432678 C-192.24790588 163.04432678 -192.90790588 163.04432678 -193.58790588 163.04432678 C-193.7696637 163.81776428 -193.95142151 164.59120178 -194.13868713 165.38807678 C-195.43626595 170.76471106 -196.80332708 175.97666373 -198.83399963 181.12245178 C-199.659353 183.2264614 -200.4169239 185.34404009 -201.15040588 187.48182678 C-201.37856995 188.14053772 -201.60673401 188.79924866 -201.84181213 189.47792053 C-202.9499744 193.28976666 -203.75753246 197.16383722 -204.58790588 201.04432678 C-209.62330265 201.06910165 -214.65866369 201.08722227 -219.69410706 201.09925842 C-221.40602741 201.10427777 -223.11794349 201.11109463 -224.82984924 201.11976624 C-227.29478511 201.13193699 -229.75966413 201.13757916 -232.22462463 201.14198303 C-233.36709908 201.14972496 -233.36709908 201.14972496 -234.53265381 201.15762329 C-238.34640413 201.15802316 -241.88106359 200.9702364 -245.58790588 200.04432678 C-245.17437886 194.46171197 -243.95239604 190.1067981 -241.77149963 184.97010803 C-240.33297254 181.41414502 -239.10606786 177.80963392 -237.90040588 174.16932678 C-237.68609924 173.52664856 -237.4717926 172.88397034 -237.25099182 172.22181702 C-236.24988614 169.18536929 -235.30079529 166.16223868 -234.58790588 163.04432678 C-233.92790588 163.04432678 -233.26790588 163.04432678 -232.58790588 163.04432678 C-232.50540588 162.11620178 -232.42290588 161.18807678 -232.33790588 160.23182678 C-231.72468887 155.84154846 -230.14367728 151.90547583 -228.57618713 147.77870178 C-227.29774982 144.24152343 -226.41787767 140.7100355 -225.58790588 137.04432678 C-224.92790588 137.04432678 -224.26790588 137.04432678 -223.58790588 137.04432678 C-223.40228088 135.52838928 -223.40228088 135.52838928 -223.21290588 133.98182678 C-222.58790588 130.04432678 -222.58790588 130.04432678 -221.40040588 126.35682678 C-220.29302308 123.16014152 -220.29302308 123.16014152 -221.46290588 120.60682678 C-221.83415588 120.09120178 -222.20540588 119.57557678 -222.58790588 119.04432678 C-225.22790588 119.04432678 -227.86790588 119.04432678 -230.58790588 119.04432678 C-230.80446838 120.43651428 -230.80446838 120.43651428 -231.02540588 121.85682678 C-231.58790588 125.04432678 -231.58790588 125.04432678 -232.58790588 128.04432678 C-233.24790588 128.04432678 -233.90790588 128.04432678 -234.58790588 128.04432678 C-234.69489807 128.89381897 -234.80189026 129.74331116 -234.91212463 130.61854553 C-235.64525336 134.33504203 -236.86631335 137.39638007 -238.40040588 140.85682678 C-238.66812805 141.46631165 -238.93585022 142.07579651 -239.21168518 142.70375061 C-239.99674925 144.48704495 -240.79213707 146.26578348 -241.58790588 148.04432678 C-242.00040588 148.96987366 -242.41290588 149.89542053 -242.83790588 150.84901428 C-243.49654869 152.32611764 -244.15864365 153.80169324 -244.82618713 155.27479553 C-245.49630157 156.83152291 -246.05195314 158.43646854 -246.58790588 160.04432678 C-247.24790588 160.04432678 -247.90790588 160.04432678 -248.58790588 160.04432678 C-249.24790588 163.34432678 -249.90790588 166.64432678 -250.58790588 170.04432678 C-251.24790588 170.04432678 -251.90790588 170.04432678 -252.58790588 170.04432678 C-252.67040588 171.30245178 -252.75290588 172.56057678 -252.83790588 173.85682678 C-253.46535481 179.61298871 -255.4426644 184.70146119 -257.58790588 190.04432678 C-257.91919495 190.95698303 -258.25048401 191.86963928 -258.59181213 192.80995178 C-259.58790588 195.04432678 -259.58790588 195.04432678 -261.58790588 196.04432678 C-262.00040588 196.78682678 -262.41290588 197.52932678 -262.83790588 198.29432678 C-265.05100803 201.77205872 -267.2554449 203.61440732 -270.58790588 206.04432678 C-271.57790588 206.04432678 -272.56790588 206.04432678 -273.58790588 206.04432678 C-273.58790588 206.70432678 -273.58790588 207.36432678 -273.58790588 208.04432678 C-279.99444633 209.32563487 -286.19414969 209.64276583 -292.58790588 208.04432678 C-292.58790588 207.38432678 -292.58790588 206.72432678 -292.58790588 206.04432678 C-293.91821838 205.70401428 -293.91821838 205.70401428 -295.27540588 205.35682678 C-299.07120217 203.85283203 -300.99536798 202.17062249 -303.58790588 199.04432678 C-303.58790588 198.05432678 -303.58790588 197.06432678 -303.58790588 196.04432678 C-305.23790588 196.37432678 -306.88790588 196.70432678 -308.58790588 197.04432678 C-308.58790588 197.70432678 -308.58790588 198.36432678 -308.58790588 199.04432678 C-309.73130432 199.24928772 -310.87470276 199.45424866 -312.05274963 199.66542053 C-313.54367265 199.93734989 -315.03455605 200.20949652 -316.52540588 200.48182678 C-317.28015198 200.61653381 -318.03489807 200.75124084 -318.81251526 200.89002991 C-322.50743762 201.28704712 -322.50743762 201.28704712 -325.58790588 203.04432678 C-326.93058001 203.13064553 -328.2776491 203.15139151 -329.62306213 203.14198303 C-330.43194885 203.13876038 -331.24083557 203.13553772 -332.07423401 203.13221741 C-332.92437073 203.1238385 -333.77450745 203.11545959 -334.65040588 203.10682678 C-335.50440979 203.10231506 -336.3584137 203.09780334 -337.23829651 203.09315491 C-339.35486252 203.08133052 -341.47139273 203.06339447 -343.58790588 203.04432678 C-343.58790588 202.38432678 -343.58790588 201.72432678 -343.58790588 201.04432678 C-344.84603088 201.00307678 -346.10415588 200.96182678 -347.40040588 200.91932678 C-355.41978581 199.99741381 -362.23654579 195.9428355 -367.58790588 189.98182678 C-374.08056726 181.79204288 -374.08056726 181.79204288 -373.58790588 176.04432678 C-374.24790588 176.04432678 -374.90790588 176.04432678 -375.58790588 176.04432678 C-375.64211812 173.00241815 -375.68168137 169.96148679 -375.71290588 166.91932678 C-375.7296637 166.06338928 -375.74642151 165.20745178 -375.76368713 164.32557678 C-375.80113978 159.45673227 -375.44787275 155.62011483 -373.58790588 151.04432678 C-373.35329651 150.30569397 -373.11868713 149.56706116 -372.87696838 148.80604553 C-370.40304097 141.07866048 -367.57115242 133.52254728 -362.58790588 127.04432678 C-361.92790588 127.04432678 -361.26790588 127.04432678 -360.58790588 127.04432678 C-360.31978088 126.28120178 -360.05165588 125.51807678 -359.77540588 124.73182678 C-358.61280858 122.10068552 -357.61499126 120.98695027 -355.58790588 119.04432678 C-355.29399963 118.41268616 -355.00009338 117.78104553 -354.69728088 117.13026428 C-353.48931591 114.85894987 -352.35050235 113.80473438 -350.33790588 112.23182678 C-347.78789844 110.14113745 -345.62222425 108.02677783 -343.52540588 105.48182678 C-339.24735345 100.35270291 -335.236141 96.78553122 -328.58790588 95.04432678 C-328.58790588 94.38432678 -328.58790588 93.72432678 -328.58790588 93.04432678 C-325.61790588 92.05432678 -325.61790588 92.05432678 -322.58790588 91.04432678 C-322.58790588 90.38432678 -322.58790588 89.72432678 -322.58790588 89.04432678 C-310.54885634 84.75924135 -297.54741117 84.21452657 -285.58790588 89.04432678 C-285.58790588 89.70432678 -285.58790588 90.36432678 -285.58790588 91.04432678 C-284.19571838 91.44651428 -284.19571838 91.44651428 -282.77540588 91.85682678 C-279.82550223 92.9558105 -278.53175402 93.66851239 -276.58790588 96.04432678 C-276.12384338 94.34276428 -276.12384338 94.34276428 -275.65040588 92.60682678 C-274.58790588 89.04432678 -274.58790588 89.04432678 -273.58790588 88.04432678 C-261.34312947 87.2690523 -248.82483956 88.48177793 -236.58790588 89.04432678 C-236.91790588 91.68432678 -237.24790588 94.32432678 -237.58790588 97.04432678 C-238.24790588 97.04432678 -238.90790588 97.04432678 -239.58790588 97.04432678 C-239.73228088 98.28182678 -239.87665588 99.51932678 -240.02540588 100.79432678 C-240.3747909 103.60937178 -240.79169955 106.31447648 -241.58790588 109.04432678 C-242.24790588 109.04432678 -242.90790588 109.04432678 -243.58790588 109.04432678 C-243.7696637 109.90155334 -243.95142151 110.75877991 -244.13868713 111.64198303 C-245.486844 117.77436836 -246.92834874 123.36254562 -249.58790588 129.04432678 C-249.96099219 130.36708734 -250.31837004 131.69664755 -250.58790588 133.04432678 C-251.24790588 133.04432678 -251.90790588 133.04432678 -252.58790588 133.04432678 C-252.77353088 134.56026428 -252.77353088 134.56026428 -252.96290588 136.10682678 C-253.56875924 139.9237029 -254.459845 143.3593279 -255.58790588 147.04432678 C-256.24790588 147.04432678 -256.90790588 147.04432678 -257.58790588 147.04432678 C-258.24790588 150.67432678 -258.90790588 154.30432678 -259.58790588 158.04432678 C-260.24790588 158.04432678 -260.90790588 158.04432678 -261.58790588 158.04432678 C-261.72067932 158.71979553 -261.85345276 159.39526428 -261.99024963 160.09120178 C-262.1668512 160.98323303 -262.34345276 161.87526428 -262.52540588 162.79432678 C-262.69942932 163.67604553 -262.87345276 164.55776428 -263.05274963 165.46620178 C-263.51159077 167.67667731 -264.02126662 169.85944746 -264.58790588 172.04432678 C-265.24790588 172.04432678 -265.90790588 172.04432678 -266.58790588 172.04432678 C-266.91790588 175.01432678 -267.24790588 177.98432678 -267.58790588 181.04432678 C-266.59790588 181.04432678 -265.60790588 181.04432678 -264.58790588 181.04432678 C-264.31978088 180.44620178 -264.05165588 179.84807678 -263.77540588 179.23182678 C-262.58034894 177.0304061 -261.35322975 175.7921722 -259.58790588 174.04432678 C-251.78443494 164.38172169 -247.70879321 152.61209678 -243.58790588 141.04432678 C-242.92790588 141.04432678 -242.26790588 141.04432678 -241.58790588 141.04432678 C-240.92790588 138.07432678 -240.26790588 135.10432678 -239.58790588 132.04432678 C-238.92790588 132.04432678 -238.26790588 132.04432678 -237.58790588 132.04432678 C-237.45513245 131.42944397 -237.32235901 130.81456116 -237.18556213 130.18104553 C-237.00896057 129.37280334 -236.83235901 128.56456116 -236.65040588 127.73182678 C-236.47638245 126.93131897 -236.30235901 126.13081116 -236.12306213 125.30604553 C-235.58790588 123.04432678 -235.58790588 123.04432678 -234.58790588 120.04432678 C-233.92790588 120.04432678 -233.26790588 120.04432678 -232.58790588 120.04432678 C-231.92790588 117.07432678 -231.26790588 114.10432678 -230.58790588 111.04432678 C-229.92790588 111.04432678 -229.26790588 111.04432678 -228.58790588 111.04432678 C-228.24759338 109.77588928 -228.24759338 109.77588928 -227.90040588 108.48182678 C-224.61993033 99.89010509 -218.91736018 94.84514573 -210.58790588 91.04432678 C-207.24024963 90.85292053 -207.24024963 90.85292053 -204.58790588 91.04432678 C-204.58790588 90.38432678 -204.58790588 89.72432678 -204.58790588 89.04432678 C-203.59790588 89.04432678 -202.60790588 89.04432678 -201.58790588 89.04432678 C-201.58790588 89.70432678 -201.58790588 90.36432678 -201.58790588 91.04432678 C-200.10290588 90.95151428 -200.10290588 90.95151428 -198.58790588 90.85682678 C-191.84439138 90.87045004 -185.77766429 93.86720417 -180.58790588 98.04432678 C-179.71290588 100.29432678 -179.71290588 100.29432678 -179.58790588 102.04432678 C-178.92790588 102.04432678 -178.26790588 102.04432678 -177.58790588 102.04432678 C-177.25790588 102.70432678 -176.92790588 103.36432678 -176.58790588 104.04432678 C-175.63915588 103.38432678 -174.69040588 102.72432678 -173.71290588 102.04432678 C-170.58790588 100.04432678 -170.58790588 100.04432678 -168.58790588 100.04432678 C-168.58790588 99.38432678 -168.58790588 98.72432678 -168.58790588 98.04432678 C-161.21305606 94.31700701 -154.91386487 91.32656268 -146.58790588 91.04432678 C-146.58790588 90.38432678 -146.58790588 89.72432678 -146.58790588 89.04432678 C-141.63790588 89.04432678 -136.68790588 89.04432678 -131.58790588 89.04432678 C-131.58790588 89.70432678 -131.58790588 90.36432678 -131.58790588 91.04432678 C-131.03103088 91.03530334 -130.47415588 91.02627991 -129.90040588 91.01698303 C-123.86225207 91.25157347 -120.68202814 92.96615273 -116.21681213 96.96229553 C-112.71975629 101.43215349 -112.3419661 106.23689002 -112.39259338 111.75526428 C-112.3990387 112.99920959 -112.40548401 114.24315491 -112.41212463 115.52479553 C-112.42888245 116.80999084 -112.44564026 118.09518616 -112.46290588 119.41932678 C-112.47192932 120.72772522 -112.48095276 122.03612366 -112.49024963 123.38417053 C-112.51375503 126.60441048 -112.54661501 129.82427385 -112.58790588 133.04432678 C-112.25790588 132.38432678 -111.92790588 131.72432678 -111.58790588 131.04432678 C-110.92790588 131.04432678 -110.26790588 131.04432678 -109.58790588 131.04432678 C-109.31978088 130.09557678 -109.05165588 129.14682678 -108.77540588 128.16932678 C-107.58790588 125.04432678 -107.58790588 125.04432678 -104.58790588 123.04432678 C-104.25790588 122.05432678 -103.92790588 121.06432678 -103.58790588 120.04432678 C-101.94360759 118.355588 -100.27406371 116.69127163 -98.58790588 115.04432678 C-97.98978088 114.23995178 -97.39165588 113.43557678 -96.77540588 112.60682678 C-94.29200122 109.6976956 -91.59580074 107.67949203 -88.49024963 105.47401428 C-86.67804951 104.11207333 -85.15900034 102.67279266 -83.58790588 101.04432678 C-76.80888605 95.04005207 -68.70803787 91.29933228 -59.58790588 90.91932678 C-58.92790588 90.96057678 -58.26790588 91.00182678 -57.58790588 91.04432678 C-57.58790588 90.38432678 -57.58790588 89.72432678 -57.58790588 89.04432678 C-49.99790588 89.04432678 -42.40790588 89.04432678 -34.58790588 89.04432678 C-34.58790588 89.70432678 -34.58790588 90.36432678 -34.58790588 91.04432678 C-33.63915588 91.18870178 -32.69040588 91.33307678 -31.71290588 91.48182678 C-28.58790588 92.04432678 -28.58790588 92.04432678 -26.58790588 93.04432678 C-26.58790588 93.70432678 -26.58790588 94.36432678 -26.58790588 95.04432678 C-25.92790588 95.04432678 -25.26790588 95.04432678 -24.58790588 95.04432678 C-24.41774963 94.36627991 -24.24759338 93.68823303 -24.07228088 92.98963928 C-22.57336881 87.23317908 -20.79143076 81.77319689 -18.50587463 76.28260803 C-17.39669487 73.57809737 -16.46792563 70.83105597 -15.58790588 68.04432678 C-14.92790588 68.04432678 -14.26790588 68.04432678 -13.58790588 68.04432678 C-13.42355042 67.06592834 -13.42355042 67.06592834 -13.25587463 66.06776428 C-13.09731995 65.19377991 -12.93876526 64.31979553 -12.77540588 63.41932678 C-12.54917542 62.13155334 -12.54917542 62.13155334 -12.31837463 60.81776428 C-11.4740347 57.61198163 -10.09615067 54.99476184 -8.58790588 52.04432678 C-7.59871915 49.50919793 -6.64023078 46.97643911 -5.71290588 44.41932678 C-3.18175918 37.5461057 -0.47055816 30.77901883 2.41209412 24.04432678 C3.07209412 24.04432678 3.73209412 24.04432678 4.41209412 24.04432678 C3.75209412 22.06432678 3.09209412 20.08432678 2.41209412 18.04432678 C-1.21790588 17.71432678 -4.84790588 17.38432678 -8.58790588 17.04432678 C-7.92790588 13.41432678 -7.26790588 9.78432678 -6.58790588 6.04432678 C-5.92790588 6.04432678 -5.26790588 6.04432678 -4.58790588 6.04432678 C-4.44353088 5.23995178 -4.29915588 4.43557678 -4.15040588 3.60682678 C-3.37133932 0.05774577 -3.37133932 0.05774577 0 0 Z M-301.58790588 111.04432678 C-301.58790588 111.70432678 -301.58790588 112.36432678 -301.58790588 113.04432678 C-302.16798401 113.27249084 -302.74806213 113.50065491 -303.34571838 113.73573303 C-311.07838909 118.24870287 -315.57611151 129.34126799 -319.58790588 137.04432678 C-321.44741146 140.42908797 -323.30770445 143.81340895 -325.16993713 147.19667053 C-327.45016479 151.7759707 -327.74584018 155.36695976 -327.77540588 160.48182678 C-327.78958557 161.59428772 -327.80376526 162.70674866 -327.81837463 163.85292053 C-327.58615947 167.06851015 -327.09444271 169.20643183 -325.58790588 172.04432678 C-321.93506841 174.47955176 -318.83822136 174.59907045 -314.58790588 174.04432678 C-311.44180456 172.81220345 -309.5757284 171.23050342 -307.40040588 168.66932678 C-306.8912262 168.08409241 -306.38204651 167.49885803 -305.85743713 166.89588928 C-304.51231316 164.9340777 -304.01276186 163.36823779 -303.58790588 161.04432678 C-302.92790588 161.04432678 -302.26790588 161.04432678 -301.58790588 161.04432678 C-299.22880236 156.78059868 -299.22880236 156.78059868 -298.58790588 152.04432678 C-297.92790588 152.04432678 -297.26790588 152.04432678 -296.58790588 152.04432678 C-296.0823068 150.60878653 -295.58363098 149.17080659 -295.08790588 147.73182678 C-294.80946838 146.93131897 -294.53103088 146.13081116 -294.24415588 145.30604553 C-293.44857481 142.95663257 -293.44857481 142.95663257 -293.58790588 140.04432678 C-292.92790588 140.04432678 -292.26790588 140.04432678 -291.58790588 140.04432678 C-289.39125572 131.17927432 -287.65908933 121.60353428 -291.58790588 113.04432678 C-292.24790588 113.04432678 -292.90790588 113.04432678 -293.58790588 113.04432678 C-293.58790588 112.38432678 -293.58790588 111.72432678 -293.58790588 111.04432678 C-296.87486822 110.2447954 -298.29813781 109.94773742 -301.58790588 111.04432678 Z M-48.58790588 116.04432678 C-48.58790588 116.70432678 -48.58790588 117.36432678 -48.58790588 118.04432678 C-50.23790588 118.70432678 -51.88790588 119.36432678 -53.58790588 120.04432678 C-53.58790588 120.70432678 -53.58790588 121.36432678 -53.58790588 122.04432678 C-55.23790588 122.70432678 -56.88790588 123.36432678 -58.58790588 124.04432678 C-58.58790588 125.03432678 -58.58790588 126.02432678 -58.58790588 127.04432678 C-59.22728088 127.29182678 -59.86665588 127.53932678 -60.52540588 127.79432678 C-62.78685596 128.84120972 -62.78685596 128.84120972 -63.15040588 131.10682678 C-63.29478088 131.74620178 -63.43915588 132.38557678 -63.58790588 133.04432678 C-64.57790588 133.37432678 -65.56790588 133.70432678 -66.58790588 134.04432678 C-67.81760466 137.55623488 -67.81760466 137.55623488 -68.58790588 141.04432678 C-69.24790588 141.04432678 -69.90790588 141.04432678 -70.58790588 141.04432678 C-70.9862262 142.04012756 -70.9862262 142.04012756 -71.39259338 143.05604553 C-74.58790588 151.04432678 -74.58790588 151.04432678 -75.70118713 153.59510803 C-77.48582089 158.52447088 -77.35079217 163.34517096 -75.21290588 168.10682678 C-74.40853088 169.06588928 -74.40853088 169.06588928 -73.58790588 170.04432678 C-72.92790588 170.04432678 -72.26790588 170.04432678 -71.58790588 170.04432678 C-71.25790588 171.03432678 -70.92790588 172.02432678 -70.58790588 173.04432678 C-66.07072208 174.41317036 -63.00016325 173.51507924 -58.58790588 172.04432678 C-58.58790588 171.38432678 -58.58790588 170.72432678 -58.58790588 170.04432678 C-57.94853088 169.77620178 -57.30915588 169.50807678 -56.65040588 169.23182678 C-54.25658902 168.15764926 -54.25658902 168.15764926 -53.58790588 165.04432678 C-52.92790588 164.73495178 -52.26790588 164.42557678 -51.58790588 164.10682678 C-50.92790588 163.75620178 -50.26790588 163.40557678 -49.58790588 163.04432678 C-49.2262856 161.71838574 -48.8906255 160.38494221 -48.58790588 159.04432678 C-47.10290588 158.54932678 -47.10290588 158.54932678 -45.58790588 158.04432678 C-43.93970393 155.44190265 -43.58790588 154.18183899 -43.58790588 151.04432678 C-42.92790588 151.04432678 -42.26790588 151.04432678 -41.58790588 151.04432678 C-40.59790588 147.74432678 -39.60790588 144.44432678 -38.58790588 141.04432678 C-37.92790588 141.04432678 -37.26790588 141.04432678 -36.58790588 141.04432678 C-36.38294495 140.18967834 -36.17798401 139.33502991 -35.96681213 138.45448303 C-35.69739807 137.34975647 -35.42798401 136.24502991 -35.15040588 135.10682678 C-34.88356995 134.00467834 -34.61673401 132.90252991 -34.34181213 131.76698303 C-33.58790588 129.04432678 -33.58790588 129.04432678 -32.58790588 128.04432678 C-31.89038621 123.22147649 -31.89661596 120.01213268 -34.77540588 115.98182678 C-39.75938002 112.54842238 -43.17111632 114.02877718 -48.58790588 116.04432678 Z M-114.58790588 134.04432678 C-113.58790588 137.04432678 -113.58790588 137.04432678 -113.58790588 137.04432678 Z M-116.58790588 138.04432678 C-115.58790588 140.04432678 -115.58790588 140.04432678 -115.58790588 140.04432678 Z " fill="#093BA1" transform="translate(1077.587905883789,23.955673217773438)"/>
<path d="M0 0 C0.33 0.66 0.66 1.32 1 2 C1.66 2 2.32 2 3 2 C3 2.99 3 3.98 3 5 C2.34 5 1.68 5 1 5 C0.67 6.65 0.34 8.3 0 10 C-0.99 9.01 -1.98 8.02 -3 7 C-2.01 4.69 -1.02 2.38 0 0 Z " fill="#062FA4" transform="translate(828,179)"/>
</svg>
