<?xml version="1.0" encoding="UTF-8"?>
<svg version="1.1" xmlns="http://www.w3.org/2000/svg" width="1689" height="768">
<path d="M0 0 C4.11294843 3.2658371 8.0317106 6.71998574 11.8828125 10.2890625 C16.11204565 8.90181404 18.49632201 6.97306976 21.6328125 3.8515625 C36.84816132 -10.24799407 56.38533638 -20.12283114 76.1328125 -26.1484375 C76.86282471 -26.37120361 77.59283691 -26.59396973 78.3449707 -26.82348633 C91.48875553 -30.53937277 104.5616939 -32.22014619 118.18505859 -32.10205078 C120.3831174 -32.08593526 122.5793389 -32.10204014 124.77734375 -32.12109375 C138.51713371 -32.14247641 151.80935478 -30.0674252 164.9453125 -25.9609375 C166.19380981 -25.57578979 166.19380981 -25.57578979 167.4675293 -25.18286133 C186.64593482 -19.0917162 203.39040294 -9.48998719 218.8828125 3.2890625 C219.58921875 3.85625 220.295625 4.4234375 221.0234375 5.0078125 C223.76315369 7.41466597 224.83709681 9.09916654 225.6953125 12.6640625 C223.88365011 20.74686391 215.23515696 27.08222708 209.51313782 32.79244995 C208.69735219 33.61050114 207.88156656 34.42855232 207.04106015 35.27139294 C204.32441551 37.99433544 201.60424229 40.71372418 198.8840332 43.43310547 C196.92845401 45.39113705 194.97360777 47.34989985 193.01870728 49.30860901 C188.27133356 54.06425818 183.52121416 58.81715546 178.76998059 63.56894808 C174.90934345 67.43006141 171.04949916 71.29196557 167.19020653 75.15442276 C156.24194319 86.11148055 145.29159821 97.06645181 134.33856115 108.01873766 C133.74915775 108.60810111 133.15975435 109.19746455 132.55249023 109.8046875 C131.96236565 110.39477121 131.37224106 110.98485491 130.76423391 111.59281994 C121.18313741 121.17350927 111.60704959 130.75918768 102.03319893 140.34711717 C92.19658377 150.1980833 82.35625795 160.0453292 72.51203221 169.88869011 C66.98757634 175.4128138 61.46467542 180.93847186 55.94576454 186.46813583 C51.25177958 191.17120846 46.55436902 195.87082554 41.85243718 200.56595378 C39.45346364 202.96165467 37.05614408 205.35895202 34.66313362 207.76061058 C32.07051453 210.36089812 29.471858 212.95499553 26.87153625 215.5475769 C26.11366375 216.31059297 25.35579124 217.07360904 24.5749529 217.85974681 C23.87810988 218.55199104 23.18126686 219.24423527 22.46330738 219.95745659 C21.56450532 220.8565847 21.56450532 220.8565847 20.64754564 221.77387702 C17.87228083 224.15669675 15.80890807 225.26801487 12.1328125 225.3515625 C4.30356129 222.7919996 -1.87070215 214.67961743 -7.58261108 208.95062256 C-8.39657872 208.13821491 -9.21054635 207.32580727 -10.04917967 206.48878121 C-12.75830574 203.78362315 -15.46386799 201.07492964 -18.16943359 198.36621094 C-20.117601 196.4188496 -22.06651215 194.47223319 -24.01538086 192.52557373 C-28.74688357 187.7985039 -33.47569571 183.06875146 -38.20352952 178.33801243 C-42.04492339 174.49435609 -45.88729717 170.65168188 -49.73036575 166.80970001 C-50.27822591 166.26199308 -50.82608607 165.71428616 -51.39054806 165.14998205 C-52.50360809 164.03724175 -53.61667036 162.92450369 -54.72973485 161.81176785 C-65.15042653 151.39392334 -75.56805835 140.97302339 -85.98463638 130.55106595 C-94.92438047 121.60684825 -103.86675191 112.66526438 -112.81103516 103.72558594 C-123.20458294 93.3373866 -133.59651072 82.94757112 -143.98584807 72.55516076 C-145.09286456 71.44782572 -146.19988314 70.34049277 -147.30690384 69.23316193 C-147.85155635 68.68835514 -148.39620885 68.14354836 -148.95736598 67.58223228 C-152.79780693 63.74092746 -156.63940794 59.90078514 -160.48145676 56.06108856 C-165.15888964 51.38645659 -169.83454406 46.71005456 -174.50790899 42.03135559 C-176.89272273 39.64390974 -179.27859878 37.25755184 -181.66611099 34.87280273 C-184.25094137 32.29068907 -186.83269706 29.70554062 -189.41366577 27.11956787 C-190.17279089 26.36267347 -190.93191602 25.60577907 -191.71404493 24.82594848 C-192.40280576 24.1345799 -193.09156659 23.44321132 -193.80119896 22.73089218 C-194.39757994 22.13434885 -194.99396092 21.53780551 -195.60841405 20.92318511 C-197.76452591 18.5879431 -199.02495072 16.72974936 -199.6796875 13.6015625 C-198.31593662 5.5705851 -190.72747679 0.97260606 -184.4921875 -3.5234375 C-128.16437594 -42.73255988 -54.52009486 -41.42388408 0 0 Z " fill="#2E367A" transform="translate(455.1171875,357.7109375)"/>
<path d="M0 0 C1.01129974 -0.00960754 2.02259949 -0.01921509 3.06454468 -0.02911377 C4.71603012 -0.03548859 4.71603012 -0.03548859 6.40087891 -0.04199219 C7.52434723 -0.04769226 8.64781555 -0.05339233 9.80532837 -0.05926514 C12.18775485 -0.06873209 14.57019453 -0.07525581 16.95263672 -0.07910156 C20.60488651 -0.08880725 24.25657386 -0.11981542 27.90869141 -0.15136719 C30.21858388 -0.15789678 32.5284804 -0.16314742 34.83837891 -0.16699219 C35.93532074 -0.17933899 37.03226257 -0.19168579 38.16244507 -0.20440674 C39.18004913 -0.20140564 40.1976532 -0.19840454 41.24609375 -0.1953125 C42.14242523 -0.19895813 43.03875671 -0.20260376 43.96224976 -0.20635986 C46.72574316 0.23708057 47.53853424 0.99972816 49.25244141 3.16113281 C50.22366547 4.604919 51.15079167 6.07882382 52.04541016 7.57128906 C52.58464111 8.46485107 53.12387207 9.35841309 53.67944336 10.27905273 C54.26040771 11.25076416 54.84137207 12.22247559 55.43994141 13.22363281 C56.70749762 15.32560127 57.97575282 17.42714835 59.24462891 19.52832031 C59.90430664 20.62241211 60.56398438 21.71650391 61.24365234 22.84375 C64.48592017 28.19814173 67.77662419 33.52244512 71.06494141 38.84863281 C78.50075828 50.91047703 85.85988481 63.01777785 93.20452881 75.13522339 C97.16993872 81.67666584 101.14535982 88.21201821 105.12890625 94.74243164 C108.15628836 99.70707466 111.16847707 104.68025285 114.16259766 109.66503906 C114.80495361 110.73069092 115.44730957 111.79634277 116.10913086 112.89428711 C117.34747744 114.9492558 118.5818574 117.00662138 119.81176758 119.06665039 C120.36453369 119.98212646 120.9172998 120.89760254 121.48681641 121.84082031 C121.97375977 122.65276855 122.46070313 123.4647168 122.96240234 124.30126953 C124.12742705 126.29864848 124.12742705 126.29864848 126.25244141 127.16113281 C126.51331543 126.4536792 126.77418945 125.74622559 127.04296875 125.01733398 C128.33371052 121.96921368 129.87769593 119.28600182 131.60400391 116.46191406 C132.62143677 114.79165161 132.62143677 114.79165161 133.65942383 113.08764648 C134.39866366 111.88291428 135.13800551 110.67824468 135.87744141 109.47363281 C136.64376494 108.21900947 137.40979238 106.96420521 138.17553711 105.70922852 C140.52857669 101.85621701 142.88931584 98.0079648 145.25244141 94.16113281 C145.61154602 93.57650269 145.97065063 92.99187256 146.34063721 92.38952637 C149.36792254 87.46226895 152.39880935 82.53723759 155.43383789 77.61474609 C159.79432415 70.54115225 164.12658025 63.45104851 168.43994141 56.34863281 C173.36204746 48.24485303 178.32633203 40.16881512 183.33447266 32.11791992 C186.2924673 27.35513167 189.21685986 22.5742764 192.10791016 17.77050781 C193.06697266 16.18012695 193.06697266 16.18012695 194.04541016 14.55761719 C195.28804166 12.49382403 196.52647381 10.42749532 197.76025391 8.35839844 C198.31841797 7.43220703 198.87658203 6.50601562 199.45166016 5.55175781 C199.94496826 4.72708008 200.43827637 3.90240234 200.9465332 3.05273438 C202.25244141 1.16113281 202.25244141 1.16113281 204.25244141 0.16113281 C205.88661736 0.07084932 207.52446978 0.04357623 209.16113281 0.04760742 C210.1820401 0.04768295 211.20294739 0.04775848 212.25479126 0.0478363 C213.91265152 0.05557823 213.91265152 0.05557823 215.60400391 0.06347656 C216.7331723 0.06489151 217.8623407 0.06630646 219.02572632 0.06776428 C222.64299129 0.07337538 226.26019505 0.08592979 229.87744141 0.09863281 C232.32535718 0.10364638 234.77327392 0.10820954 237.22119141 0.11230469 C243.23162907 0.12334841 249.24203086 0.14009738 255.25244141 0.16113281 C256.40771677 2.47168354 256.37968923 3.78178827 256.38386917 6.35283661 C256.38771032 7.23688439 256.39155146 8.12093217 256.395509 9.03176928 C256.39464252 10.00898927 256.39377604 10.98620927 256.3928833 11.99304199 C256.39733998 13.54319669 256.39733998 13.54319669 256.4018867 15.12466764 C256.4106036 18.61013805 256.41208445 22.09557423 256.41357422 25.58105469 C256.41820018 28.07068455 256.42322454 30.5603137 256.42861938 33.04994202 C256.44176453 39.82866862 256.44822849 46.60738175 256.45263004 53.38611794 C256.45539031 57.6157659 256.4596272 61.84541157 256.46413422 66.07505798 C256.47632683 77.77773139 256.48662695 89.48040296 256.49000931 101.18308258 C256.49022887 101.93231486 256.49044844 102.68154714 256.49067466 103.45348343 C256.49089294 104.20453815 256.49111122 104.95559288 256.49133611 105.72940683 C256.49177958 107.25140794 256.49222614 108.77340905 256.49267578 110.29541016 C256.49289721 111.05038007 256.49311864 111.80534998 256.49334678 112.58319777 C256.4972978 124.8261148 256.51476107 137.06897241 256.5380353 149.31186646 C256.5617186 161.87089964 256.57420973 174.42990296 256.57537723 186.98895884 C256.57629556 194.04475038 256.58208779 201.10046447 256.60019684 208.15623474 C256.61715781 214.78816853 256.61887319 221.41998079 256.61005783 228.05193901 C256.6092831 230.49251639 256.61368695 232.93310143 256.62351608 235.37365913 C256.63610318 238.69235998 256.63043138 242.01052767 256.61993408 245.32922363 C256.63201869 246.79505363 256.63201869 246.79505363 256.64434743 248.29049635 C256.63775759 249.17454413 256.63116774 250.05859191 256.6243782 250.96942902 C256.62497529 251.73613938 256.62557238 252.50284974 256.62618756 253.29279375 C256.25244141 255.16113281 256.25244141 255.16113281 253.25244141 257.16113281 C250.93774414 257.4151001 250.93774414 257.4151001 248.18603516 257.41992188 C246.63928101 257.42937836 246.63928101 257.42937836 245.0612793 257.43902588 C243.94873779 257.43497742 242.83619629 257.43092896 241.68994141 257.42675781 C240.54710693 257.42867126 239.40427246 257.43058472 238.22680664 257.43255615 C235.80924255 257.43391786 233.39167115 257.43022245 230.97412109 257.421875 C227.26724877 257.41117555 223.56086111 257.42177107 219.85400391 257.43457031 C217.50764867 257.43324872 215.16129373 257.43068632 212.81494141 257.42675781 C211.7023999 257.43080627 210.5898584 257.43485474 209.44360352 257.43902588 C208.41243408 257.43272156 207.38126465 257.42641724 206.31884766 257.41992188 C204.95675171 257.4175351 204.95675171 257.4175351 203.56713867 257.4151001 C201.25244141 257.16113281 201.25244141 257.16113281 198.25244141 255.16113281 C197.88329792 252.69737053 197.88329792 252.69737053 197.89167786 249.52975464 C197.88549187 247.73341583 197.88549187 247.73341583 197.87918091 245.90078735 C197.88979899 244.56683126 197.90070343 243.23287743 197.91186523 241.89892578 C197.9127111 240.49963397 197.91223716 239.10034083 197.91053772 237.7010498 C197.90967475 233.89538858 197.92734899 230.09000934 197.94825959 226.28441381 C197.96697634 222.30991376 197.96877287 218.33540769 197.97233582 214.36087036 C197.98167104 206.83143977 198.0063047 199.3021394 198.03638428 191.77276623 C198.06988244 183.20216368 198.08640274 174.631555 198.10147059 166.06090331 C198.13285304 148.42757257 198.18564213 130.79436315 198.25244141 113.16113281 C195.50728857 115.7944685 193.75331586 118.47556546 191.83837891 121.77832031 C191.34833374 122.61881424 191.34833374 122.61881424 190.84838867 123.47628784 C189.77049539 125.32713741 188.69907889 127.18165537 187.62744141 129.03613281 C186.86834429 130.34144008 186.1087329 131.6464484 185.34863281 132.95117188 C183.76760762 135.66611127 182.1888108 138.38232673 180.61181641 141.09960938 C175.23155626 150.36665507 169.81092628 159.61017496 164.37490845 168.84460449 C162.26297469 172.43416643 160.16420685 176.03106451 158.07376099 179.63317871 C157.04483542 181.40198258 156.0104517 183.16745369 154.97363281 184.93164062 C153.69327272 187.11050459 152.42159109 189.29450005 151.16015625 191.484375 C150.5873291 192.4527832 150.01450195 193.42119141 149.42431641 194.41894531 C148.9302832 195.26602051 148.43625 196.1130957 147.92724609 196.98583984 C145.89235346 199.62882721 144.30481583 200.80188077 141.25244141 202.16113281 C137.82666016 202.54931641 137.82666016 202.54931641 133.93994141 202.55957031 C133.24860107 202.56244049 132.55726074 202.56531067 131.8449707 202.56826782 C130.38931454 202.57030121 128.9336306 202.5648222 127.47802734 202.55224609 C125.25897715 202.53618013 123.04174793 202.55211743 120.82275391 202.57128906 C119.40347908 202.5693065 117.98420538 202.56546255 116.56494141 202.55957031 C115.28232422 202.55618652 113.99970703 202.55280273 112.67822266 202.54931641 C108.93616261 202.12529449 107.17110439 201.51063767 104.25244141 199.16113281 C102.39404297 196.61865234 102.39404297 196.61865234 100.64306641 193.54394531 C100.15740204 192.70365532 100.15740204 192.70365532 99.66192627 191.84638977 C98.59751577 189.99917681 97.55030869 188.14277161 96.50244141 186.28613281 C95.75180583 184.97816551 94.99982879 183.67096724 94.24658203 182.36450195 C92.68261735 179.64919595 91.1244749 176.93067936 89.57080078 174.20947266 C86.34113103 168.559909 83.05712538 162.94242346 79.76550293 157.32879639 C78.81709567 155.70905302 77.87298873 154.08679384 76.92919922 152.46435547 C71.8688368 143.80229769 66.66439923 135.22940611 61.45361328 126.6574707 C60.65635428 125.3452609 59.85913311 124.03302812 59.06195068 122.72077179 C57.12588367 119.53396034 55.18930498 116.34746021 53.25244141 113.16113281 C53.25005305 113.88504369 53.2476647 114.60895456 53.24520397 115.35480213 C53.18610969 132.95598352 53.1105956 150.55701734 53.01672649 168.15804768 C52.97172979 176.66972428 52.93232416 185.18135869 52.90600586 193.69311523 C52.88305705 201.11056326 52.8496942 208.52787815 52.80373985 215.94522065 C52.77976533 219.87393983 52.76106438 223.80252681 52.7548275 227.73131752 C52.74879561 231.42743492 52.7288653 235.12321392 52.69816589 238.81920624 C52.68514634 240.82604033 52.68696078 242.83295337 52.68916321 244.83982849 C52.67662506 246.03034821 52.66408691 247.22086792 52.65116882 248.44746399 C52.64425538 250.00298965 52.64425538 250.00298965 52.63720226 251.58994007 C52.25244141 254.16113281 52.25244141 254.16113281 50.87218952 255.99484825 C48.59680375 257.63321861 46.97382062 257.53537962 44.18603516 257.53344727 C42.63928101 257.54279045 42.63928101 257.54279045 41.0612793 257.55232239 C39.39246704 257.53850777 39.39246704 257.53850777 37.68994141 257.52441406 C36.54710693 257.52491257 35.40427246 257.52541107 34.22680664 257.52592468 C31.80922712 257.52358295 29.39164521 257.51384865 26.97412109 257.49731445 C23.2671943 257.47372669 19.56098663 257.47675245 15.85400391 257.48339844 C13.50764544 257.47782169 11.16129001 257.47071184 8.81494141 257.46191406 C7.7023999 257.46282547 6.5898584 257.46373688 5.44360352 257.4646759 C4.41243408 257.45514389 3.38126465 257.44561188 2.31884766 257.43579102 C0.95675171 257.42887993 0.95675171 257.42887993 -0.43286133 257.42182922 C-2.74755859 257.16113281 -2.74755859 257.16113281 -5.74755859 255.16113281 C-6.12130475 253.28523105 -6.12130475 253.28523105 -6.11949539 250.95101833 C-6.12608524 250.06287046 -6.13267508 249.17472258 -6.13946462 248.25966114 C-6.13140821 247.27786807 -6.12335181 246.29607501 -6.11505127 245.28453064 C-6.11995453 243.72719226 -6.11995453 243.72719226 -6.12495685 242.13839251 C-6.13227788 238.63663098 -6.11804179 235.13528132 -6.10400391 231.63354492 C-6.1047942 229.13244048 -6.10688968 226.63133615 -6.11019897 224.13023376 C-6.11481299 218.02868209 -6.10550025 211.92729327 -6.08991101 205.8257715 C-6.07240515 198.7269617 -6.07095247 191.62817647 -6.07029542 184.52934844 C-6.06860611 171.86776438 -6.05277544 159.20623757 -6.02880859 146.54467773 C-6.00554448 134.24551926 -5.99138336 121.9463971 -5.98779297 109.6472168 C-5.9875702 108.88961077 -5.98734743 108.13200474 -5.98711792 107.35144096 C-5.98667533 105.82533324 -5.98623331 104.29922553 -5.98579185 102.77311781 C-5.98557228 102.0203828 -5.98535271 101.26764779 -5.9851265 100.49210262 C-5.98491051 99.74132411 -5.98469452 98.99054559 -5.98447199 98.21701622 C-5.98077479 86.51368991 -5.96941524 74.81036951 -5.9569961 63.10704966 C-5.95255477 58.85843411 -5.94911902 54.60981913 -5.94637397 50.36120217 C-5.94153628 42.99532661 -5.93144842 35.62948237 -5.91554642 28.26362038 C-5.91100833 25.81134166 -5.90818121 23.35905912 -5.90713882 20.90677643 C-5.90540404 17.57473926 -5.89755019 14.2427739 -5.88800049 10.91075134 C-5.88886697 9.92672756 -5.88973345 8.94270377 -5.89062619 7.92886108 C-5.88678505 7.04332095 -5.8829439 6.15778083 -5.87898636 5.24540615 C-5.87773986 4.47527831 -5.87649336 3.70515046 -5.87520909 2.91168541 C-5.60782556 -0.75511526 -3.10293691 0.02367934 0 0 Z " fill="#2F367A" transform="translate(1177.74755859375,325.8388671875)"/>
<path d="M0 0 C0.97906311 -0.0065712 1.95812622 -0.0131424 2.96685791 -0.01991272 C6.22847566 -0.03972247 9.49004691 -0.05133336 12.75170898 -0.0612793 C13.86717543 -0.06535482 14.98264187 -0.06943035 16.13191032 -0.07362938 C22.05066622 -0.09453568 27.9693987 -0.10881023 33.88818359 -0.11816406 C39.9704288 -0.1291596 46.05230114 -0.16346631 52.13441563 -0.20333576 C56.83343627 -0.22965537 61.53237082 -0.23787008 66.23145866 -0.24144554 C68.47066669 -0.24628224 70.70987164 -0.25781166 72.94900703 -0.27648354 C88.75606107 -0.39996286 103.7545656 0.21403645 117.99780273 7.92700195 C118.98514404 8.44460083 118.98514404 8.44460083 119.99243164 8.97265625 C138.60455649 18.97343814 151.15155793 33.8613052 157.99389648 53.7746582 C162.66635157 70.00945976 160.7189132 88.23323084 153.15795898 103.20043945 C151.09604939 106.77861335 148.8859079 109.93524701 146.24780273 113.11450195 C145.73217773 113.79512695 145.21655273 114.47575195 144.68530273 115.17700195 C145.91210667 118.85741375 147.05534481 119.34093785 150.24780273 121.42700195 C166.05180615 132.24735657 176.53996937 147.04887536 180.17749023 166.11450195 C183.2727275 187.85772345 178.93064355 207.85013668 166.73999023 226.0871582 C154.09193312 242.65252855 135.6397373 254.09077207 114.89396667 256.96367931 C110.21455929 257.4156374 105.5118945 257.32419522 100.81494141 257.32226562 C99.04795395 257.32730354 99.04795395 257.32730354 97.24526978 257.33244324 C93.36459287 257.34191728 89.48395922 257.34389407 85.60327148 257.3449707 C84.26385288 257.34639481 82.92443445 257.34799086 81.58501625 257.34975624 C74.58011064 257.35898651 67.57522399 257.36309338 60.5703125 257.36230469 C54.03944787 257.36170211 47.50866535 257.37229498 40.97782153 257.38804835 C35.36580205 257.40110352 29.75380951 257.40648955 24.14177495 257.40584928 C20.79165805 257.40559401 17.44161445 257.40846181 14.09151268 257.41902733 C10.3638348 257.42876655 6.63637236 257.42597409 2.90869141 257.41992188 C1.23881416 257.42835114 1.23881416 257.42835114 -0.46479797 257.43695068 C-1.98091675 257.43065895 -1.98091675 257.43065895 -3.52766418 257.42424011 C-4.84970462 257.42505726 -4.84970462 257.42505726 -6.19845295 257.42589092 C-8.31469727 257.17700195 -8.31469727 257.17700195 -10.31469727 255.17700195 C-10.56424493 253.30110019 -10.56424493 253.30110019 -10.56358624 250.96688747 C-10.56818503 250.0787396 -10.57278383 249.19059173 -10.57752198 248.27553028 C-10.57237842 247.29373721 -10.56723485 246.31194415 -10.56193542 245.30039978 C-10.56434984 244.2621742 -10.56676426 243.22394861 -10.56925184 242.15426165 C-10.57491701 238.65258306 -10.56620448 235.15108464 -10.55761719 231.64941406 C-10.55868936 229.14830984 -10.56062708 226.64720586 -10.56336975 224.14610291 C-10.56772572 218.04458815 -10.56276155 211.9431447 -10.55351945 205.84164064 C-10.54315186 198.74283107 -10.5432052 191.6440333 -10.54369203 184.54521758 C-10.54419299 171.88364923 -10.53502152 159.22210612 -10.52050781 146.56054688 C-10.50641672 134.26138855 -10.49933714 121.96225244 -10.5 109.66308594 C-10.50003996 108.90547991 -10.50007991 108.14787388 -10.50012108 107.3673101 C-10.50016143 106.61104123 -10.50020179 105.85477236 -10.50024337 105.07558626 C-10.50093243 91.09135959 -10.49504797 77.1071424 -10.48609015 63.1229188 C-10.48306829 58.16906752 -10.48200994 53.21521798 -10.48155785 48.26136589 C-10.48080623 41.6007314 -10.47448146 34.94011742 -10.46439171 28.27948952 C-10.46145849 25.82720967 -10.46024299 23.37492711 -10.46081924 20.92264557 C-10.46130614 17.59061177 -10.45569193 14.258645 -10.44841003 10.92662048 C-10.44995864 9.9425967 -10.45150724 8.95857291 -10.45310277 7.94473022 C-10.44987832 7.0591901 -10.44665388 6.17364997 -10.44333172 5.26127529 C-10.44262729 4.49114745 -10.44192287 3.7210196 -10.4411971 2.92755455 C-10.09808743 -1.82052703 -3.57885967 0.01029888 0 0 Z M47.68530273 54.17700195 C47.58699127 55.67570243 47.55731817 57.17898734 47.5559082 58.6809082 C47.55275604 59.63860107 47.54960388 60.59629395 47.5463562 61.58300781 C47.54838043 62.62465088 47.55040466 63.66629395 47.55249023 64.73950195 C47.55105515 66.33193726 47.55105515 66.33193726 47.54959106 67.95654297 C47.54890909 70.20613667 47.55076455 72.45573232 47.55493164 74.70532227 C47.56027964 78.16207267 47.55498719 81.61869312 47.54858398 85.07543945 C47.54924476 87.25512724 47.55052592 89.43481495 47.55249023 91.61450195 C47.550466 92.65614502 47.54844177 93.69778809 47.5463562 94.77099609 C47.54950836 95.72868896 47.55266052 96.68638184 47.5559082 97.6730957 C47.5567038 98.52057373 47.55749939 99.36805176 47.55831909 100.24121094 C47.47210565 102.18357325 47.47210565 102.18357325 48.68530273 103.17700195 C51.30739098 103.31548917 53.90114892 103.39020124 56.52514648 103.4152832 C57.71932945 103.42739082 57.71932945 103.42739082 58.93763733 103.43974304 C60.63157969 103.45360976 62.32555031 103.46432027 64.01953125 103.47216797 C66.58121197 103.48922502 69.14154865 103.53306516 71.70288086 103.57739258 C81.93343026 103.67413225 89.56233694 102.85078143 98.49780273 97.48950195 C104.07351932 91.595173 107.07674263 84.58526566 106.97045898 76.4621582 C106.17411966 70.08053484 103.22512213 63.71682135 98.68530273 59.17700195 C91.92711669 54.03490387 86.06585713 52.87221844 77.82202148 52.9465332 C76.98943314 52.94699142 76.15684479 52.94744965 75.29902649 52.94792175 C73.55008508 52.95092908 71.80114598 52.95876955 70.05224609 52.97119141 C67.36408105 52.98956155 64.67625867 52.99170011 61.98803711 52.99145508 C60.28686223 52.99636654 58.5856897 53.00219322 56.88452148 53.0090332 C56.07730148 53.01014603 55.27008148 53.01125885 54.43840027 53.0124054 C50.76027688 52.69570662 50.76027688 52.69570662 47.68530273 54.17700195 Z M47.68530273 154.17700195 C47.68530273 170.34700195 47.68530273 186.51700195 47.68530273 203.17700195 C50.12083295 204.39476706 51.71294117 204.31680339 54.43530273 204.33813477 C55.42393311 204.34774231 56.41256348 204.35734985 57.43115234 204.36724854 C58.50502197 204.37149841 59.5788916 204.37574829 60.68530273 204.38012695 C61.79075439 204.38582703 62.89620605 204.3915271 64.03515625 204.3973999 C66.38223307 204.40686326 68.72932327 204.41338916 71.07641602 204.41723633 C74.64290164 204.42688722 78.20879756 204.45787575 81.77514648 204.48950195 C84.05769515 204.4960375 86.34024794 204.5012858 88.62280273 204.50512695 C89.68047852 204.51747375 90.7381543 204.52982056 91.82788086 204.5425415 C102.0986911 204.5121388 111.19064645 202.61973222 118.68530273 195.17700195 C123.74454538 188.40201615 124.455305 181.40151892 123.68530273 173.17700195 C121.89176169 165.94571862 117.73301897 161.34471651 111.68530273 157.17700195 C106.25001398 154.13502965 100.73525765 153.05324774 94.55957031 153.04760742 C93.56536575 153.04445526 92.57116119 153.0413031 91.54682922 153.03805542 C90.48522079 153.04007965 89.42361237 153.04210388 88.32983398 153.04418945 C87.23184982 153.04323273 86.13386566 153.042276 85.00260925 153.04129028 C82.68696027 153.04061089 80.37130937 153.04244838 78.05566406 153.04663086 C74.50052656 153.05199784 70.94551452 153.04666982 67.39038086 153.0402832 C65.14103162 153.04094373 62.89168246 153.04222435 60.64233398 153.04418945 C59.0408123 153.04115311 59.0408123 153.04115311 57.40693665 153.03805542 C56.42218857 153.04120758 55.43744049 153.04435974 54.42285156 153.04760742 C53.11976799 153.04880081 53.11976799 153.04880081 51.7903595 153.05001831 C49.62767472 153.04225539 49.62767472 153.04225539 47.68530273 154.17700195 Z " fill="#2F367A" transform="translate(952.314697265625,325.822998046875)"/>
<path d="M0 0 C1.83482893 0.00138269 1.83482893 0.00138269 3.70672512 0.00279331 C4.38544924 0.00193889 5.06417335 0.00108446 5.76346487 0.00020415 C8.05442791 -0.00145258 10.34531891 0.00407383 12.63627529 0.00952244 C14.27186996 0.00980429 15.90746475 0.00964661 17.54305935 0.00907993 C21.99741451 0.0087919 26.45174299 0.01468959 30.90609193 0.02165389 C35.55593339 0.02788644 40.20577539 0.02849115 44.85562038 0.0296793 C53.66708568 0.03279291 62.47853863 0.04100669 71.28999847 0.05102879 C81.31884973 0.06218901 91.34770156 0.06770014 101.37655747 0.07272422 C122.01253476 0.08318929 142.64850093 0.1007893 163.28446865 0.12304783 C164.5191559 2.59242234 164.41797738 4.23831942 164.42973232 7.00000095 C164.43611217 8.01445286 164.44249203 9.02890476 164.44906521 10.07409763 C164.45073444 11.72254673 164.45073444 11.72254673 164.4524374 13.40429783 C164.4557658 14.52872288 164.4590942 15.65314793 164.46252346 16.81164646 C164.46759276 19.19229821 164.46993179 21.57295709 164.46977139 23.95361423 C164.47195956 27.60786646 164.49012012 31.26181775 164.50907803 34.91601658 C164.51201152 37.22460929 164.51399661 39.53320344 164.5149374 41.84179783 C164.52212292 42.94076389 164.52930843 44.03972996 164.53671169 45.17199802 C164.53363506 46.18644993 164.53055843 47.20090183 164.52738857 48.2460947 C164.52881359 49.14163059 164.53023861 50.03716648 164.53170681 50.95983982 C164.28446865 53.12304783 164.28446865 53.12304783 162.28446865 55.12304783 C160.36731434 55.38476086 160.36731434 55.38476086 157.98182583 55.40152073 C156.62723011 55.41826595 156.62723011 55.41826595 155.24526882 55.43534946 C153.75526112 55.43858974 153.75526112 55.43858974 152.23515224 55.44189548 C151.19122814 55.45194111 150.14730404 55.46198673 149.07174587 55.47233677 C145.60880509 55.50331642 142.14594212 55.52024495 138.68290615 55.53711033 C136.28679128 55.55581008 133.89068307 55.57538258 131.49458218 55.59579563 C125.17842943 55.64724879 118.86225529 55.68680385 112.5460043 55.72393894 C106.1046047 55.76389611 99.66329505 55.81502615 93.22196865 55.86523533 C80.57619953 55.96215065 67.93037891 56.04688448 55.28446865 56.12304783 C55.25982291 62.08617949 55.24163465 68.04928177 55.22953701 74.01245213 C55.22449587 76.04273081 55.21766308 78.07300585 55.2090292 80.10327244 C55.19695398 83.01482129 55.19123831 85.92632233 55.1868124 88.83789158 C55.18165112 89.75142902 55.17648983 90.66496647 55.17117214 91.60618687 C55.17097697 93.7788021 55.2223506 95.95132079 55.28446865 98.12304783 C57.25432135 100.09290053 61.10777409 99.28725289 63.80180264 99.29663181 C64.98226162 99.30666233 64.98226162 99.30666233 66.18656826 99.31689548 C67.90100885 99.33097827 69.61546856 99.34286195 71.32993793 99.35284328 C74.04003616 99.36919875 76.74999254 99.39243344 79.46002102 99.41774082 C87.16713858 99.48867205 94.87431408 99.5487064 102.58158779 99.59985447 C107.29012629 99.63158523 111.99850257 99.67284584 116.70691013 99.72004986 C118.50547851 99.73610625 120.30408431 99.74841091 122.10270405 99.75695705 C124.61455099 99.76906426 127.12601416 99.79319393 129.63774014 99.82006931 C130.76071247 99.82095303 130.76071247 99.82095303 131.90637112 99.82185459 C137.05657303 99.89515221 137.05657303 99.89515221 139.28446865 102.12304783 C139.52497768 104.37564182 139.52497768 104.37564182 139.51151943 107.21533298 C139.51129284 108.80675617 139.51129284 108.80675617 139.51106167 110.43032932 C139.5007391 111.57931705 139.49041653 112.72830479 139.47978115 113.91211033 C139.47695126 115.08567081 139.47412136 116.2592313 139.47120571 117.46835423 C139.4599822 121.22835445 139.43487357 124.98811922 139.40946865 128.74804783 C139.39944166 131.29231523 139.39031533 133.83658635 139.3821249 136.38086033 C139.36003579 142.62833693 139.32653689 148.87567556 139.28446865 155.12304783 C136.21966819 156.65544806 133.00223762 156.29369578 129.63774014 156.31250095 C128.45465267 156.32494091 128.45465267 156.32494091 127.24766445 156.33763218 C125.53269819 156.35504739 123.81770794 156.37021017 122.10270405 156.38340855 C119.3928069 156.40439662 116.68303073 156.43142114 113.97320461 156.46008396 C107.24389025 156.52999784 100.51449017 156.58939292 93.785079 156.64910984 C88.09940435 156.6999531 82.41379513 156.75474686 76.7282114 156.8149271 C74.05089262 156.84159532 71.37356806 156.86235168 68.69619656 156.88293552 C67.06472893 156.89953082 65.43326408 156.91640198 63.80180264 156.9335947 C63.05113018 156.93777912 62.30045773 156.94196354 61.52703762 156.94627476 C58.1171461 156.68651593 58.1171461 156.68651593 55.28446865 158.12304783 C55.18333165 161.14112846 55.14477956 164.13585296 55.15165615 167.15429783 C55.15069942 168.06054905 55.1497427 168.96680027 55.14875698 169.90051365 C55.14807512 171.8205583 55.14992983 173.74060524 55.15409756 175.66064548 C55.15944573 178.61040487 55.15415277 181.56001197 55.1477499 184.50976658 C55.14841068 186.370444 55.14969184 188.23112133 55.15165615 190.09179783 C55.14963192 190.98032444 55.14760769 191.86885105 55.14552212 192.78430271 C54.75864065 196.77133641 54.75864065 196.77133641 56.28446865 200.12304783 C57.65843729 200.22618141 59.03761781 200.26098242 60.41543484 200.26780796 C61.30581951 200.27470646 62.19620419 200.28160496 63.11357021 200.2887125 C64.09801113 200.29132587 65.08245205 200.29393925 66.09672451 200.29663181 C67.12753643 200.30331882 68.15834835 200.31000584 69.220397 200.31689548 C71.46686446 200.33098244 73.71334654 200.34286476 75.95983601 200.35284328 C79.51004118 200.36919098 83.06013774 200.39242525 86.61028957 200.41774082 C96.70695027 200.48869478 106.80365532 200.54872176 116.90043545 200.59985447 C123.0678184 200.63157156 129.23507717 200.67282862 135.40235996 200.72004986 C137.75915266 200.73611435 140.11597401 200.74841521 142.47280598 200.75695705 C145.76293899 200.76905366 149.0527778 200.79317923 152.34281826 200.82006931 C153.32523495 200.82065845 154.30765163 200.8212476 155.31983852 200.82185459 C156.65964527 200.83643208 156.65964527 200.83643208 158.02651882 200.85130405 C159.19432589 200.85765196 159.19432589 200.85765196 160.38572502 200.86412811 C162.28446865 201.12304783 162.28446865 201.12304783 164.28446865 203.12304783 C164.54516506 205.3242197 164.54516506 205.3242197 164.55912685 208.09179783 C164.56865887 209.12627048 164.57819088 210.16074314 164.58801174 211.22656345 C164.58664463 212.90782322 164.58664463 212.90782322 164.5852499 214.62304783 C164.58953503 215.76966892 164.59382015 216.91629002 164.59823513 218.0976572 C164.60398603 220.52538485 164.60447313 222.95312973 164.60014248 225.38086033 C164.59698165 229.10771977 164.62043628 232.83378659 164.64579678 236.56054783 C164.64806948 238.91471349 164.6487734 241.26888129 164.6477499 243.62304783 C164.65695965 244.74388767 164.6661694 245.86472752 164.67565823 247.0195322 C164.66942944 248.05400486 164.66320065 249.08847752 164.6567831 250.15429783 C164.65741253 251.06759861 164.65804195 251.98089939 164.65869045 252.92187595 C164.53519726 253.64826267 164.41170406 254.37464939 164.28446865 255.12304783 C160.68231674 257.52448243 159.07704116 257.37429637 154.79374599 257.37701511 C154.13176394 257.3801351 153.46978188 257.38325508 152.78773975 257.3864696 C150.56520517 257.3944594 148.34294287 257.38812227 146.12040615 257.38183689 C144.52879075 257.38454632 142.9371766 257.38810698 141.34556484 257.39245701 C137.01920159 257.401589 132.69293352 257.39803343 128.36656857 257.39169884 C123.84359381 257.38664304 119.32062732 257.39132912 114.79765224 257.39447117 C107.20144592 257.39811204 99.60527845 257.39330855 92.00907803 257.38379002 C83.22093943 257.37290523 74.43289362 257.37643072 65.64475727 257.38744283 C58.10585071 257.39651226 50.56697212 257.39780267 43.02806187 257.39256549 C38.52259328 257.38944389 34.01716834 257.38904164 29.51170254 257.39563847 C25.27640586 257.4014063 21.04122909 257.39742538 16.8059454 257.38584995 C15.24947465 257.38320035 13.69299384 257.38397356 12.13652706 257.38837528 C10.01594454 257.39382043 7.89574901 257.38700949 5.77519131 257.37701511 C4.58720943 257.37626106 3.39922756 257.37550701 2.17524624 257.37473011 C-0.71553135 257.12304783 -0.71553135 257.12304783 -3.71553135 255.12304783 C-4.08927751 253.24714607 -4.08927751 253.24714607 -4.08746815 250.91293335 C-4.09405799 250.02478548 -4.10064784 249.1366376 -4.10743737 248.22157615 C-4.09938097 247.23978309 -4.09132456 246.25799003 -4.08302402 245.24644566 C-4.08792729 243.68910728 -4.08792729 243.68910728 -4.0929296 242.10030752 C-4.10025064 238.59854599 -4.08601455 235.09719634 -4.07197666 231.59545994 C-4.07276696 229.09435549 -4.07486243 226.59325116 -4.07817173 224.09214878 C-4.08278574 217.99059711 -4.07347301 211.88920829 -4.05788377 205.78768652 C-4.0403779 198.68887671 -4.03892523 191.59009149 -4.03826818 184.49126346 C-4.03657887 171.8296794 -4.02074819 159.16815258 -3.99678135 146.50659275 C-3.97351724 134.20743427 -3.95935611 121.90831211 -3.95576572 109.60913181 C-3.95554296 108.85152579 -3.95532019 108.09391976 -3.95509067 107.31335597 C-3.95464809 105.78724826 -3.95420606 104.26114055 -3.9537646 102.73503283 C-3.95354504 101.98229782 -3.95332547 101.2295628 -3.95309925 100.45401764 C-3.95288326 99.70323912 -3.95266728 98.95246061 -3.95244475 98.17893123 C-3.94874754 86.47560493 -3.93738799 74.77228452 -3.92496885 63.06896467 C-3.92052753 58.82034913 -3.91709177 54.57173415 -3.91434672 50.32311719 C-3.90950903 42.95724163 -3.89942118 35.59139739 -3.88351917 28.22553539 C-3.87898109 25.77325667 -3.87615397 23.32097414 -3.87511158 20.86869144 C-3.87337679 17.53665428 -3.86552294 14.20468891 -3.85597324 10.87266636 C-3.85683973 9.88864257 -3.85770621 8.90461879 -3.85859895 7.8907761 C-3.8547578 7.00523597 -3.85091666 6.11969584 -3.84695911 5.20732117 C-3.84571262 4.43719332 -3.84446612 3.66706548 -3.84318185 2.87360042 C-3.62833177 -0.07277556 -2.96768293 0.13447348 0 0 Z " fill="#2F367A" transform="translate(730.7155313491821,325.8769521713257)"/>
<path d="M0 0 C2.1980588 0.01611552 4.3942803 0.00001064 6.59228516 -0.01904297 C20.33207512 -0.04042563 33.62429619 2.03462558 46.76025391 6.14111328 C48.00875122 6.52626099 48.00875122 6.52626099 49.2824707 6.91918945 C68.46087623 13.01033458 85.20534435 22.61206359 100.69775391 35.39111328 C101.40416016 35.95830078 102.11056641 36.52548828 102.83837891 37.10986328 C105.57809509 39.51671676 106.65203821 41.20121732 107.51025391 44.76611328 C105.71465127 52.77726352 97.20860771 59.02315948 91.52894592 64.68017578 C90.73483934 65.47513679 89.94073276 66.27009779 89.12256235 67.08914852 C86.47950086 69.73384802 83.83289799 72.37497393 81.1862793 75.01611328 C79.28357789 76.91853243 77.38107604 78.8211492 75.4788208 80.72401428 C71.39245659 84.81090108 67.30427559 88.89596305 63.2148304 92.97976685 C57.3022903 98.88415592 51.3925362 104.79132714 45.48344331 110.69916594 C35.89464632 120.28577806 26.30362153 129.8701581 16.71118164 139.453125 C7.3968543 148.75826359 -1.91641492 158.06445914 -11.22827148 167.37207031 C-11.80292257 167.94645867 -12.37757365 168.52084703 -12.9696384 169.1126411 C-15.85268694 171.99438453 -18.73571478 174.87614868 -21.61873233 177.75792313 C-45.51002871 201.63886448 -69.40494645 225.51617931 -93.30224609 249.39111328 C-93.30224609 245.57396341 -92.20076216 244.67713861 -89.86474609 241.70361328 C-66.36691525 210.08307549 -56.92348599 169.66095881 -62.12451172 130.71630859 C-62.72231342 126.91051756 -63.46188878 123.15038888 -64.30224609 119.39111328 C-64.46853516 118.64458496 -64.63482422 117.89805664 -64.80615234 117.12890625 C-70.69410427 91.75074309 -83.51155198 69.06895647 -100.79760742 49.71704102 C-104.30224609 45.71377741 -104.30224609 45.71377741 -104.30224609 42.39111328 C-101.96286998 39.7266275 -99.0570857 37.61248924 -96.30224609 35.39111328 C-94.88492187 34.22128906 -94.88492187 34.22128906 -93.43896484 33.02783203 C-85.27719547 26.42420684 -76.61199752 21.21329866 -67.30224609 16.39111328 C-66.69155273 16.07013672 -66.08085937 15.74916016 -65.45166016 15.41845703 C-58.01502952 11.55674118 -50.43666216 8.60216313 -42.42724609 6.14111328 C-41.67411133 5.90690674 -40.92097656 5.6727002 -40.14501953 5.43139648 C-26.90997947 1.57186839 -13.74597991 -0.11915831 0 0 Z " fill="#2CB5E7" transform="translate(573.30224609375,325.60888671875)"/>
<path d="M0 0 C15.47356396 12.36720231 25.45657775 29.08684229 28.42578125 48.73828125 C30.16463825 70.64787943 23.82839117 89.93010135 9.61328125 106.80078125 C-4.05632327 121.42353847 -22.49471671 128.67470176 -42.19921875 129.92578125 C-62.92641924 129.56841572 -79.97025249 121.64422739 -94.94921875 107.48828125 C-110.02515445 91.85318103 -114.83555614 73.48348556 -114.53125 52.3359375 C-113.8846533 33.17692702 -104.63692276 17.72624586 -91.26171875 4.67578125 C-90.69066406 4.08410156 -90.11960937 3.49242187 -89.53125 2.8828125 C-65.91405022 -19.76298575 -25.31144946 -18.64128206 0 0 Z " fill="#9DDAE9" transform="translate(511.26171875,200.32421875)"/>
</svg>
